<?xml version="1.0" encoding="UTF-8"?>
<svg id="df_light" xmlns="http://www.w3.org/2000/svg" viewBox="0 0 500 300">
  <defs>
    <style>
      .cls-1 {
        fill: #1c1d23;
        stroke-width: 0px;
      }
    </style>
  </defs>
  <path class="cls-1" d="m232.05,195.21c-5.93,14.07-14.34,26.27-25.22,36.6-10.88,10.33-23.85,18.46-38.91,24.4-15.06,5.93-31.6,8.9-49.62,8.9H28.29V34.31h90.01c18.02,0,34.56,2.92,49.62,8.74,15.05,5.83,28.03,13.9,38.91,24.23,10.88,10.33,19.29,22.48,25.22,36.43,5.94,13.96,8.9,29.07,8.9,45.33v.66c0,16.27-2.97,31.44-8.9,45.5Zm-44.18-45.5c0-10.11-1.71-19.45-5.11-28.03-3.41-8.57-8.13-15.93-14.18-22.09-6.05-6.15-13.35-10.93-21.92-14.34-8.57-3.4-18.03-5.11-28.36-5.11h-39.23v139.14h39.23c10.33,0,19.78-1.65,28.36-4.95,8.57-3.3,15.88-8.02,21.92-14.18,6.04-6.15,10.77-13.41,14.18-21.76,3.41-8.35,5.11-17.69,5.11-28.03v-.66Z"/>
  <path class="cls-1" d="m284.07,34.31h187.04v50.77h-187.04v-50.77Z"/>
  <path class="cls-1" d="m284.07,124.32h93.52v50.77h-93.52v-50.77Z"/>
  <path class="cls-1" d="m284.07,214.33h50.77v50.77h-50.77v-50.77Z"/>
  <path class="cls-1" d="m420.33,265.1V124.32h50.77v140.78h-50.77Z"/>
</svg>