<?xml version="1.0" encoding="UTF-8"?>
<svg id="Layer_1" data-name="Layer 1" xmlns="http://www.w3.org/2000/svg" viewBox="0 0 150 100">
  <defs>
    <style>
      .cls-1 {
        fill: #4f4f4f;
        stroke-width: 0px;
      }
    </style>
  </defs>
  <path class="cls-1" d="m44,26.43c-4.31-2.22-9.3-3.33-14.98-3.33H10.13v54.03h18.89c5.68,0,10.67-1.11,14.98-3.33,4.31-2.22,7.64-5.35,9.99-9.41,2.35-4.05,3.52-8.79,3.52-14.21s-1.17-10.18-3.52-14.28c-2.35-4.1-5.68-7.26-9.99-9.48Zm-2.21,36.85c-3.1,3.1-7.48,4.64-13.16,4.64h-7.66v-35.69h7.66c5.68,0,10.06,1.59,13.16,4.76,3.1,3.17,4.64,7.57,4.64,13.2s-1.55,9.99-4.64,13.08Z"/>
  <rect class="cls-1" x="65.63" y="23.1" width="10.84" height="54.03"/>
  <path class="cls-1" d="m136.19,35.76c-2.45-4.21-5.78-7.5-9.99-9.87-4.21-2.37-8.86-3.56-13.97-3.56s-9.7,1.19-13.93,3.56c-4.23,2.37-7.59,5.66-10.06,9.87-2.48,4.21-3.72,8.94-3.72,14.21s1.24,10.08,3.72,14.28c2.48,4.21,5.83,7.5,10.06,9.87,4.23,2.37,8.88,3.56,13.93,3.56s9.7-1.19,13.93-3.56c4.23-2.37,7.57-5.66,10.02-9.87,2.45-4.21,3.68-8.97,3.68-14.28s-1.23-10-3.68-14.21Zm-9.56,23.73c-1.39,2.74-3.33,4.84-5.81,6.31-2.48,1.47-5.34,2.21-8.59,2.21s-6.13-.74-8.63-2.21c-2.5-1.47-4.45-3.57-5.84-6.31-1.39-2.73-2.09-5.91-2.09-9.52s.7-6.77,2.09-9.48c1.39-2.71,3.34-4.79,5.84-6.23,2.5-1.44,5.38-2.17,8.63-2.17s6.12.72,8.59,2.17c2.48,1.45,4.41,3.52,5.81,6.23,1.39,2.71,2.09,5.87,2.09,9.48s-.7,6.79-2.09,9.52Z"/>
</svg>