<?xml version="1.0" encoding="UTF-8"?>
<svg id="Layer_1" data-name="Layer 1" xmlns="http://www.w3.org/2000/svg" viewBox="0 0 1080 1080">
  <defs>
    <style>
      .cls-1 {
        fill: #f9f9fa;
        stroke-width: 0px;
      }
    </style>
  </defs>
  <path class="cls-1" d="m820.44,504.42c39.22,61,23.45,142.58-36.43,184.59-61.42,42.99-146.07,28.06-189.06-33.35-28.48-40.62-31.62-91.43-12.63-133.65.07,0,.07-.07.07-.14.62-1.47,1.32-2.86,2.02-4.33.07-.07.07-.14.14-.21,22.33-48.5,32.59-101.19,30.71-153.53-2.8-82.98-35.88-165.05-99.17-228.35-46.48-46.48-103.15-76.63-162.82-90.45,74.04,127.99,57.57,293.95-49.48,405.06,0,.07-.07.07-.14.14-1.4,1.53-2.86,3-4.4,4.53-1.53,1.54-3.07,3.07-4.67,4.54-64.7,67.21-97.57,157.02-94.5,247.05,1.82,54.16,16.61,108.45,45.29,157.93l-21.35,79.63-24.15,90.17,90.1-24.15,79.63-21.35c102.52,59.18,232.19,62.04,339.45,0,8.45-4.89,16.82-10.19,24.99-15.91,41.94-29.45,75.3-66.65,99.31-108.25,62.95-109.22,62.11-249.07-12.91-359.97Zm-447.05,391.81c-22.99,0-41.61-18.66-41.61-41.65s18.62-41.62,41.61-41.62,41.65,18.63,41.65,41.62-18.62,41.65-41.65,41.65Zm158.23,0c-23,0-41.62-18.66-41.62-41.65s18.62-41.62,41.62-41.62,41.64,18.63,41.64,41.62-18.65,41.65-41.64,41.65Zm158.22,0c-22.99,0-41.65-18.66-41.65-41.65s18.66-41.62,41.65-41.62,41.65,18.63,41.65,41.62-18.66,41.65-41.65,41.65Z"/>
</svg>