<?xml version="1.0" encoding="UTF-8"?>
<svg id="Layer_1" data-name="Layer 1" xmlns="http://www.w3.org/2000/svg" viewBox="0 0 562.57 107.71">
  <defs>
    <style>
      .cls-1 {
        fill: #57cc99;
      }

      .cls-1, .cls-2, .cls-3, .cls-4 {
        stroke-width: 0px;
      }

      .cls-2 {
        fill: #38a3a5;
      }

      .cls-3 {
        fill: #1c1d23;
      }

      .cls-4 {
        fill: #80ed99;
      }
    </style>
  </defs>
  <g>
    <path class="cls-3" d="m98.17,73.13c-2.51,5.96-6.07,11.13-10.68,15.5-4.61,4.38-10.1,7.82-16.48,10.33-6.38,2.51-13.39,3.77-21.02,3.77H11.86s0-97.76,0-97.76h38.13c7.63,0,14.64,1.24,21.02,3.7,6.38,2.47,11.87,5.89,16.48,10.26,4.61,4.38,8.17,9.52,10.68,15.43,2.51,5.91,3.77,12.31,3.77,19.2v.28c0,6.89-1.26,13.32-3.77,19.27Zm-18.71-19.27c0-4.28-.72-8.24-2.16-11.87-1.44-3.63-3.45-6.75-6.01-9.36-2.56-2.61-5.66-4.63-9.29-6.08-3.63-1.44-7.64-2.16-12.01-2.16h-16.62s0,58.93,0,58.93h16.62c4.38,0,8.38-.7,12.01-2.09,3.63-1.4,6.73-3.4,9.29-6,2.56-2.61,4.56-5.68,6.01-9.22,1.44-3.54,2.16-7.49,2.16-11.87v-.28Z"/>
    <path class="cls-2" d="m120.2,4.98h79.22s0,21.51,0,21.51h-79.22s0-21.51,0-21.51Z"/>
    <path class="cls-1" d="m120.2,43.1h39.61s0,21.51,0,21.51h-39.61s0-21.51,0-21.51Z"/>
    <path class="cls-4" d="m120.2,81.23h21.51s0,21.51,0,21.51h-21.51s0-21.51,0-21.51Z"/>
    <path class="cls-3" d="m177.92,102.74v-59.63s21.51,0,21.51,0v59.63s-21.51,0-21.51,0Z"/>
  </g>
  <g>
    <path class="cls-3" d="m280.24,43.23v59.43s-9.13,0-9.13,0v-32.26s-19.31,31.29-19.31,31.29h-.07s-19.34-31.32-19.34-31.32v32.3s-9.13,0-9.13,0v-59.43s.69,0,.69,0l27.82,42.29,27.79-42.29h.69Z"/>
    <path class="cls-3" d="m331.74,93.82h-27.53s-3.97,8.84-3.97,8.84h-9.89s27.35-59.36,27.35-59.36h.54s27.35,59.36,27.35,59.36h-9.89s-3.97-8.84-3.97-8.84Zm-3.54-7.83l-10.21-22.73-10.25,22.73h20.46Z"/>
    <path class="cls-3" d="m399.16,44.5v58.17s-9.13,0-9.13,0v-24.57s-25.19,0-25.19,0v24.57s-9.09,0-9.09,0v-58.17s9.09,0,9.09,0v24.54s25.19,0,25.19,0v-24.54s9.13,0,9.13,0Z"/>
    <path class="cls-3" d="m423.17,53.48v14.9s22.01,0,22.01,0v9.09s-22.01,0-22.01,0v16.09s25.51,0,25.51,0v9.09s-34.64,0-34.64,0v-58.17s34.64,0,34.64,0v8.98s-25.51,0-25.51,0Z"/>
    <path class="cls-3" d="m470.99,53.45v15.55s22.01,0,22.01,0v9.09s-22.01,0-22.01,0v24.64s-9.13,0-9.13,0v-58.38s34.64,0,34.64,0v9.09s-25.51,0-25.51,0Z"/>
    <path class="cls-3" d="m536.86,93.82h-27.53s-3.97,8.84-3.97,8.84h-9.89s27.35-59.36,27.35-59.36h.54s27.35,59.36,27.35,59.36h-9.89s-3.97-8.84-3.97-8.84Zm-3.54-7.83l-10.21-22.73-10.25,22.73h20.46Z"/>
  </g>
</svg>