<?xml version="1.0" encoding="UTF-8"?>
<svg xmlns="http://www.w3.org/2000/svg" xmlns:xlink="http://www.w3.org/1999/xlink" viewBox="0 0 600 600">
  <defs>
    <style>
      .cls-1 {
        fill: url(#linear-gradient-31);
      }

      .cls-1, .cls-2, .cls-3, .cls-4, .cls-5, .cls-6, .cls-7, .cls-8, .cls-9, .cls-10, .cls-11, .cls-12, .cls-13, .cls-14, .cls-15, .cls-16, .cls-17, .cls-18, .cls-19, .cls-20, .cls-21, .cls-22, .cls-23, .cls-24, .cls-25, .cls-26, .cls-27, .cls-28, .cls-29, .cls-30, .cls-31, .cls-32, .cls-33, .cls-34, .cls-35, .cls-36, .cls-37, .cls-38, .cls-39, .cls-40, .cls-41, .cls-42, .cls-43, .cls-44, .cls-45, .cls-46, .cls-47, .cls-48, .cls-49, .cls-50, .cls-51, .cls-52, .cls-53, .cls-54, .cls-55, .cls-56, .cls-57, .cls-58, .cls-59, .cls-60, .cls-61, .cls-62, .cls-63, .cls-64, .cls-65, .cls-66, .cls-67, .cls-68, .cls-69, .cls-70, .cls-71, .cls-72, .cls-73, .cls-74, .cls-75, .cls-76, .cls-77, .cls-78, .cls-79, .cls-80, .cls-81, .cls-82, .cls-83, .cls-84, .cls-85 {
        stroke-width: 0px;
      }

      .cls-1, .cls-51 {
        opacity: .4;
      }

      .cls-2 {
        fill: url(#linear-gradient-38);
      }

      .cls-3 {
        fill: url(#linear-gradient-12);
      }

      .cls-4 {
        fill: url(#linear-gradient-17);
      }

      .cls-5 {
        fill: url(#linear-gradient-19);
      }

      .cls-6 {
        fill: url(#linear-gradient);
      }

      .cls-7 {
        fill: url(#linear-gradient-62);
      }

      .cls-8 {
        fill: url(#linear-gradient-67);
      }

      .cls-9 {
        fill: url(#linear-gradient-57);
      }

      .cls-10 {
        fill: url(#linear-gradient-21);
      }

      .cls-11 {
        fill: url(#linear-gradient-6);
      }

      .cls-12 {
        fill: url(#linear-gradient-76);
      }

      .cls-13 {
        fill: url(#linear-gradient-42);
      }

      .cls-14 {
        fill: #143e54;
      }

      .cls-15 {
        fill: url(#linear-gradient-15);
      }

      .cls-16 {
        fill: url(#linear-gradient-11);
      }

      .cls-17 {
        fill: url(#linear-gradient-81);
      }

      .cls-18 {
        fill: url(#linear-gradient-73);
      }

      .cls-19 {
        fill: url(#linear-gradient-5);
      }

      .cls-20 {
        fill: url(#linear-gradient-71);
      }

      .cls-21 {
        fill: url(#linear-gradient-58);
      }

      .cls-22 {
        fill: url(#linear-gradient-63);
      }

      .cls-23 {
        fill: url(#linear-gradient-34);
      }

      .cls-24 {
        fill: url(#linear-gradient-41);
      }

      .cls-25 {
        fill: url(#linear-gradient-40);
      }

      .cls-26 {
        fill: url(#linear-gradient-66);
      }

      .cls-27 {
        fill: url(#linear-gradient-13);
      }

      .cls-28 {
        fill: url(#linear-gradient-23);
      }

      .cls-29 {
        fill: url(#linear-gradient-25);
      }

      .cls-30 {
        fill: url(#linear-gradient-43);
      }

      .cls-31 {
        fill: url(#linear-gradient-16);
      }

      .cls-32 {
        fill: url(#linear-gradient-22);
      }

      .cls-33 {
        fill: url(#linear-gradient-54);
      }

      .cls-34 {
        fill: url(#linear-gradient-55);
      }

      .cls-35 {
        fill: url(#linear-gradient-35);
      }

      .cls-36 {
        fill: url(#linear-gradient-50);
      }

      .cls-37 {
        fill: url(#linear-gradient-32);
      }

      .cls-38 {
        fill: url(#linear-gradient-60);
      }

      .cls-39 {
        fill: url(#linear-gradient-59);
      }

      .cls-40 {
        fill: url(#linear-gradient-20);
      }

      .cls-41 {
        fill: url(#linear-gradient-14);
      }

      .cls-42 {
        fill: url(#linear-gradient-2);
      }

      .cls-43 {
        fill: url(#linear-gradient-52);
      }

      .cls-44 {
        fill: url(#linear-gradient-45);
      }

      .cls-45 {
        fill: #fffbf3;
      }

      .cls-46 {
        fill: url(#linear-gradient-7);
      }

      .cls-47 {
        fill: url(#linear-gradient-39);
      }

      .cls-48 {
        fill: url(#linear-gradient-3);
      }

      .cls-49 {
        fill: url(#linear-gradient-77);
      }

      .cls-50 {
        fill: url(#linear-gradient-69);
      }

      .cls-51 {
        fill: url(#linear-gradient-33);
      }

      .cls-52 {
        fill: url(#linear-gradient-9);
      }

      .cls-53 {
        fill: url(#linear-gradient-27);
      }

      .cls-54 {
        fill: url(#linear-gradient-82);
      }

      .cls-55 {
        fill: url(#linear-gradient-53);
      }

      .cls-56 {
        fill: url(#linear-gradient-65);
      }

      .cls-57 {
        fill: url(#linear-gradient-36);
      }

      .cls-58 {
        fill: url(#linear-gradient-48);
      }

      .cls-59 {
        fill: url(#linear-gradient-49);
      }

      .cls-60 {
        fill: url(#linear-gradient-8);
      }

      .cls-61 {
        fill: url(#linear-gradient-47);
      }

      .cls-62 {
        fill: url(#linear-gradient-24);
      }

      .cls-63 {
        fill: url(#linear-gradient-26);
      }

      .cls-64 {
        fill: url(#linear-gradient-61);
      }

      .cls-65 {
        fill: url(#linear-gradient-18);
      }

      .cls-66 {
        fill: url(#linear-gradient-51);
      }

      .cls-67 {
        fill: url(#linear-gradient-30);
      }

      .cls-68 {
        fill: url(#linear-gradient-44);
      }

      .cls-69 {
        fill: url(#linear-gradient-68);
      }

      .cls-70 {
        fill: url(#linear-gradient-72);
      }

      .cls-71 {
        fill: url(#linear-gradient-29);
      }

      .cls-72 {
        fill: url(#linear-gradient-46);
      }

      .cls-73 {
        fill: url(#linear-gradient-64);
      }

      .cls-74 {
        fill: url(#linear-gradient-28);
      }

      .cls-75 {
        fill: url(#linear-gradient-56);
      }

      .cls-76 {
        fill: url(#linear-gradient-10);
      }

      .cls-77 {
        fill: url(#linear-gradient-70);
      }

      .cls-78 {
        fill: url(#linear-gradient-78);
      }

      .cls-79 {
        fill: #023047;
      }

      .cls-80 {
        fill: url(#linear-gradient-74);
      }

      .cls-81 {
        fill: url(#linear-gradient-4);
      }

      .cls-82 {
        fill: url(#linear-gradient-37);
      }

      .cls-83 {
        fill: url(#linear-gradient-80);
      }

      .cls-84 {
        fill: url(#linear-gradient-79);
      }

      .cls-85 {
        fill: url(#linear-gradient-75);
      }
    </style>
    <linearGradient id="linear-gradient" x1="119.19" y1="374.38" x2="576.26" y2="87.11" gradientUnits="userSpaceOnUse">
      <stop offset="0" stop-color="#bbc7cd"/>
      <stop offset="1" stop-color="#8ba0aa"/>
    </linearGradient>
    <linearGradient id="linear-gradient-2" x1="51.17" y1="266.15" x2="508.24" y2="-21.12" xlink:href="#linear-gradient"/>
    <linearGradient id="linear-gradient-3" x1="110.08" y1="359.87" x2="567.15" y2="72.6" xlink:href="#linear-gradient"/>
    <linearGradient id="linear-gradient-4" x1="133.8" y1="397.62" x2="590.87" y2="110.35" xlink:href="#linear-gradient"/>
    <linearGradient id="linear-gradient-5" x1="154.68" y1="430.83" x2="611.75" y2="143.56" xlink:href="#linear-gradient"/>
    <linearGradient id="linear-gradient-6" x1="455.31" y1="200.4" x2="498.44" y2="200.4" gradientTransform="translate(-33.71 29.53) rotate(-3.94)" gradientUnits="userSpaceOnUse">
      <stop offset="0" stop-color="#bce2eb"/>
      <stop offset="1" stop-color="#49afc8"/>
    </linearGradient>
    <linearGradient id="linear-gradient-7" x1="514.64" y1="174.3" x2="533.18" y2="174.3" xlink:href="#linear-gradient-6"/>
    <linearGradient id="linear-gradient-8" x1="486.02" y1="77.07" x2="505.92" y2="77.07" xlink:href="#linear-gradient-6"/>
    <linearGradient id="linear-gradient-9" x1="100.75" y1="480.26" x2="147.05" y2="480.26" gradientTransform="matrix(1,0,0,1,0,0)" xlink:href="#linear-gradient-6"/>
    <linearGradient id="linear-gradient-10" x1="142.01" y1="516.91" x2="161.91" y2="516.91" gradientTransform="matrix(1,0,0,1,0,0)" xlink:href="#linear-gradient-6"/>
    <linearGradient id="linear-gradient-11" x1="102.25" y1="234.84" x2="91.89" y2="393.92" gradientTransform="translate(3.79 347.14) rotate(-111.55)" gradientUnits="userSpaceOnUse">
      <stop offset="0" stop-color="#6f8996"/>
      <stop offset="1" stop-color="#607d8b"/>
    </linearGradient>
    <linearGradient id="linear-gradient-12" x1="139.22" y1="238.97" x2="126" y2="441.96" xlink:href="#linear-gradient-11"/>
    <linearGradient id="linear-gradient-13" x1="113.48" y1="212.04" x2="103.12" y2="371.13" xlink:href="#linear-gradient-11"/>
    <linearGradient id="linear-gradient-14" x1="427.19" y1="127.8" x2="384.91" y2="199.29" gradientTransform="matrix(1,0,0,1,0,0)" xlink:href="#linear-gradient-11"/>
    <linearGradient id="linear-gradient-15" x1="441.12" y1="136.04" x2="398.84" y2="207.53" gradientTransform="matrix(1,0,0,1,0,0)" xlink:href="#linear-gradient-11"/>
    <linearGradient id="linear-gradient-16" x1="207.37" y1="357.57" x2="207.37" y2="493.09" gradientTransform="translate(520.45 -51.11) rotate(164.62) scale(1 -1)" xlink:href="#linear-gradient-11"/>
    <linearGradient id="linear-gradient-17" x1="208.6" y1="452.53" x2="208.6" y2="502.95" gradientTransform="translate(520.45 -51.11) rotate(164.62) scale(1 -1)" gradientUnits="userSpaceOnUse">
      <stop offset="0" stop-color="#acbbc2"/>
      <stop offset="1" stop-color="#a4b4bd"/>
    </linearGradient>
    <linearGradient id="linear-gradient-18" x1="166.31" y1="486.22" x2="261.2" y2="486.22" gradientTransform="translate(520.45 -51.11) rotate(164.62) scale(1 -1)" gradientUnits="userSpaceOnUse">
      <stop offset="0" stop-color="#466879"/>
      <stop offset="1" stop-color="#32576a"/>
    </linearGradient>
    <linearGradient id="linear-gradient-19" x1="236.91" y1="379.99" x2="236.91" y2="515.51" gradientTransform="translate(662.85 -16.31) rotate(178.87) scale(1 -1)" xlink:href="#linear-gradient-11"/>
    <linearGradient id="linear-gradient-20" x1="247.74" y1="353.64" x2="247.74" y2="505.07" gradientTransform="translate(662.85 -16.31) rotate(178.87) scale(1 -1)" xlink:href="#linear-gradient-17"/>
    <linearGradient id="linear-gradient-21" x1="207.15" y1="446.93" x2="279.65" y2="446.93" gradientTransform="translate(662.85 -16.31) rotate(178.87) scale(1 -1)" xlink:href="#linear-gradient-18"/>
    <linearGradient id="linear-gradient-22" x1="344.51" y1="541.5" x2="379.87" y2="541.5" gradientUnits="userSpaceOnUse">
      <stop offset="0" stop-color="#2a5164"/>
      <stop offset="1" stop-color="#0f3a50"/>
    </linearGradient>
    <linearGradient id="linear-gradient-23" x1="380.38" y1="493.94" x2="336.79" y2="530.43" gradientUnits="userSpaceOnUse">
      <stop offset="0" stop-color="#cad4d8"/>
      <stop offset="1" stop-color="#b6c3ca"/>
    </linearGradient>
    <linearGradient id="linear-gradient-24" x1="322.36" y1="500.26" x2="389.66" y2="500.26" gradientUnits="userSpaceOnUse">
      <stop offset="0" stop-color="#f2f5f6"/>
      <stop offset="1" stop-color="#e1e6e9"/>
    </linearGradient>
    <linearGradient id="linear-gradient-25" x1="327.85" y1="520.73" x2="389.39" y2="520.73" gradientTransform="matrix(1,0,0,1,0,0)" xlink:href="#linear-gradient-11"/>
    <linearGradient id="linear-gradient-26" x1="329.41" y1="528.41" x2="360.83" y2="528.41" gradientTransform="matrix(1,0,0,1,0,0)" xlink:href="#linear-gradient-11"/>
    <linearGradient id="linear-gradient-27" x1="366.8" y1="517.18" x2="388.87" y2="517.18" gradientTransform="matrix(1,0,0,1,0,0)" xlink:href="#linear-gradient-11"/>
    <linearGradient id="linear-gradient-28" x1="379.62" y1="366.24" x2="312.13" y2="445.54" gradientTransform="matrix(1,0,0,1,0,0)" xlink:href="#linear-gradient-6"/>
    <linearGradient id="linear-gradient-29" x1="385.2" y1="439.08" x2="358.3" y2="492.39" gradientUnits="userSpaceOnUse">
      <stop offset="0" stop-color="#92cfde" stop-opacity="0"/>
      <stop offset="1" stop-color="#219ebc"/>
    </linearGradient>
    <linearGradient id="linear-gradient-30" x1="364.46" y1="393.85" x2="331.38" y2="454.17" gradientUnits="userSpaceOnUse">
      <stop offset="0" stop-color="#fff"/>
      <stop offset="1" stop-color="#b8e0ea"/>
    </linearGradient>
    <linearGradient id="linear-gradient-31" x1="334.59" y1="484.48" x2="334.2" y2="443.98" xlink:href="#linear-gradient-29"/>
    <linearGradient id="linear-gradient-32" x1="331.96" y1="404.46" x2="310.31" y2="352.49" xlink:href="#linear-gradient-29"/>
    <linearGradient id="linear-gradient-33" x1="387.95" y1="460.51" x2="353.66" y2="483.24" xlink:href="#linear-gradient-29"/>
    <linearGradient id="linear-gradient-34" x1="255.36" y1="478.47" x2="232.36" y2="497.33" gradientUnits="userSpaceOnUse">
      <stop offset="0" stop-color="#bfe3ec"/>
      <stop offset="1" stop-color="#8da2ac"/>
    </linearGradient>
    <linearGradient id="linear-gradient-35" x1="253.56" y1="328.64" x2="275.14" y2="352.38" gradientUnits="userSpaceOnUse">
      <stop offset="0" stop-color="#2a5164"/>
      <stop offset="1" stop-color="#0f3a50"/>
    </linearGradient>
    <linearGradient id="linear-gradient-36" x1="149.12" y1="377.81" x2="193" y2="372.05" gradientUnits="userSpaceOnUse">
      <stop offset="0" stop-color="#1b4559" stop-opacity="0"/>
      <stop offset="1" stop-color="#053249"/>
    </linearGradient>
    <linearGradient id="linear-gradient-37" x1="248.37" y1="524.78" x2="289.66" y2="524.78" gradientTransform="matrix(1,0,0,1,0,0)" xlink:href="#linear-gradient-6"/>
    <linearGradient id="linear-gradient-38" x1="259.69" y1="530.79" x2="295.18" y2="530.79" xlink:href="#linear-gradient-35"/>
    <linearGradient id="linear-gradient-39" x1="121.7" y1="355.68" x2="129.25" y2="397.78" gradientTransform="matrix(1,0,0,1,0,0)" xlink:href="#linear-gradient-6"/>
    <linearGradient id="linear-gradient-40" x1="85.87" y1="373.65" x2="145.37" y2="373.65" xlink:href="#linear-gradient-35"/>
    <linearGradient id="linear-gradient-41" x1="163.38" y1="347.8" x2="171.89" y2="375.53" xlink:href="#linear-gradient-34"/>
    <linearGradient id="linear-gradient-42" x1="279.89" y1="323.66" x2="291.39" y2="361.78" xlink:href="#linear-gradient-35"/>
    <linearGradient id="linear-gradient-43" x1="290.49" y1="321.87" x2="282.41" y2="298.52" xlink:href="#linear-gradient-35"/>
    <linearGradient id="linear-gradient-44" x1="268.89" y1="307.85" x2="321.4" y2="357.48" xlink:href="#linear-gradient-36"/>
    <linearGradient id="linear-gradient-45" x1="246.88" y1="201.68" x2="271.07" y2="202.17" gradientUnits="userSpaceOnUse">
      <stop offset="0" stop-color="#839aa5"/>
      <stop offset="1" stop-color="#5b7887"/>
    </linearGradient>
    <linearGradient id="linear-gradient-46" x1="232.7" y1="182.94" x2="262.31" y2="182.94" gradientUnits="userSpaceOnUse">
      <stop offset="0" stop-color="#bdc9cf"/>
      <stop offset="1" stop-color="#8ba0aa"/>
    </linearGradient>
    <linearGradient id="linear-gradient-47" x1="-712.05" y1="275.87" x2="-595.53" y2="275.87" gradientTransform="translate(946.2 -82.15) rotate(-7.34)" xlink:href="#linear-gradient-45"/>
    <linearGradient id="linear-gradient-48" x1="-656.22" y1="256.58" x2="-611.37" y2="289.01" gradientTransform="translate(946.2 -82.15) rotate(-7.34)" gradientUnits="userSpaceOnUse">
      <stop offset="0" stop-color="#627f8d"/>
      <stop offset="1" stop-color="#3c6071"/>
    </linearGradient>
    <linearGradient id="linear-gradient-49" x1="288.99" y1="151.28" x2="284.2" y2="318.03" gradientTransform="translate(584.37 -35.54) rotate(172.66) scale(1 -1)" gradientUnits="userSpaceOnUse">
      <stop offset="0" stop-color="#3a5e6f"/>
      <stop offset="1" stop-color="#20495d"/>
    </linearGradient>
    <linearGradient id="linear-gradient-50" x1="182.98" y1="173.02" x2="311.28" y2="265.79" gradientTransform="translate(584.37 -35.54) rotate(172.66) scale(1 -1)" gradientUnits="userSpaceOnUse">
      <stop offset="0" stop-color="#284f63"/>
      <stop offset="1" stop-color="#113c52"/>
    </linearGradient>
    <linearGradient id="linear-gradient-51" x1="-702.48" y1="144.18" x2="-706.62" y2="288.26" gradientTransform="translate(963.46 -59.84) rotate(-4.65)" gradientUnits="userSpaceOnUse">
      <stop offset="0" stop-color="#8198a3"/>
      <stop offset="1" stop-color="#607d8b"/>
    </linearGradient>
    <linearGradient id="linear-gradient-52" x1="-667.86" y1="116.79" x2="-669.6" y2="149.26" xlink:href="#linear-gradient-51"/>
    <linearGradient id="linear-gradient-53" x1="216.95" y1="180.01" x2="216.95" y2="180.01" gradientTransform="translate(584.37 -35.54) rotate(172.66) scale(1 -1)" xlink:href="#linear-gradient-49"/>
    <linearGradient id="linear-gradient-54" x1="260.56" y1="228.86" x2="243.63" y2="186.95" xlink:href="#linear-gradient-49"/>
    <linearGradient id="linear-gradient-55" x1="228.89" y1="133.98" x2="238.07" y2="171.53" gradientTransform="translate(584.37 -35.54) rotate(172.66) scale(1 -1)" xlink:href="#linear-gradient-45"/>
    <linearGradient id="linear-gradient-56" x1="308.51" y1="119.98" x2="304.43" y2="140.16" gradientTransform="translate(599.83 -30.3) rotate(175.35) scale(1 -1)" xlink:href="#linear-gradient-49"/>
    <linearGradient id="linear-gradient-57" x1="343.95" y1="205.25" x2="376.95" y2="205.91" xlink:href="#linear-gradient-45"/>
    <linearGradient id="linear-gradient-58" x1="204.6" y1="236" x2="232.5" y2="236" gradientTransform="translate(627.61 54.9) rotate(-167.46) scale(1 -1)" xlink:href="#linear-gradient-46"/>
    <linearGradient id="linear-gradient-59" x1="200.97" y1="252.51" x2="237.95" y2="252.51" gradientTransform="translate(627.61 54.9) rotate(-167.46) scale(1 -1)" xlink:href="#linear-gradient-46"/>
    <linearGradient id="linear-gradient-60" x1="208.23" y1="260.68" x2="233.02" y2="260.68" gradientTransform="translate(627.61 54.9) rotate(-167.46) scale(1 -1)" xlink:href="#linear-gradient-46"/>
    <linearGradient id="linear-gradient-61" x1="339.51" y1="179.31" x2="387.51" y2="178.65" xlink:href="#linear-gradient-46"/>
    <linearGradient id="linear-gradient-62" x1="250.55" y1="260.29" x2="234.32" y2="285.2" gradientTransform="translate(627.61 54.9) rotate(-167.46) scale(1 -1)" xlink:href="#linear-gradient-46"/>
    <linearGradient id="linear-gradient-63" x1="262.18" y1="260.92" x2="262.37" y2="306.44" gradientTransform="translate(627.61 54.9) rotate(-167.46) scale(1 -1)" xlink:href="#linear-gradient-34"/>
    <linearGradient id="linear-gradient-64" x1="88.56" y1="615.08" x2="84.37" y2="584.04" gradientTransform="translate(422.32 507.23) rotate(-167.46) scale(24.29)" gradientUnits="userSpaceOnUse">
      <stop offset="0" stop-color="#b8e0ea"/>
      <stop offset="1" stop-color="#8ba0aa"/>
    </linearGradient>
    <linearGradient id="linear-gradient-65" x1="107.63" y1="640.85" x2="103.44" y2="609.81" gradientTransform="translate(414.29 520.13) rotate(-167.46) scale(5.92)" xlink:href="#linear-gradient-64"/>
    <linearGradient id="linear-gradient-66" x1="106.49" y1="639.09" x2="102.3" y2="608.05" gradientTransform="translate(406.87 516.7) rotate(-167.46) scale(6.25)" xlink:href="#linear-gradient-64"/>
    <linearGradient id="linear-gradient-67" x1="311.13" y1="85.08" x2="294.26" y2="110.01" gradientTransform="translate(584.37 -35.54) rotate(172.66) scale(1 -1)" xlink:href="#linear-gradient-34"/>
    <linearGradient id="linear-gradient-68" x1="-728.56" y1="109.09" x2="-682.68" y2="147.44" gradientTransform="translate(931.98 -257.72) rotate(-19.04)" xlink:href="#linear-gradient-34"/>
    <linearGradient id="linear-gradient-69" x1="-722.77" y1="83" x2="-693.96" y2="127.11" gradientTransform="translate(931.98 -257.72) rotate(-19.04)" xlink:href="#linear-gradient-35"/>
    <linearGradient id="linear-gradient-70" x1="-724.21" y1="84.86" x2="-711.57" y2="115.23" gradientTransform="translate(931.98 -257.72) rotate(-19.04)" gradientUnits="userSpaceOnUse">
      <stop offset="0" stop-color="#234b5f"/>
      <stop offset="1" stop-color="#07344b"/>
    </linearGradient>
    <linearGradient id="linear-gradient-71" x1="-725.22" y1="105.09" x2="-679.34" y2="143.43" gradientTransform="translate(931.98 -257.72) rotate(-19.04)" xlink:href="#linear-gradient-34"/>
    <linearGradient id="linear-gradient-72" x1="334.21" y1="70.42" x2="327.06" y2="96.27" gradientTransform="translate(522.58 -140.1) rotate(149.78) scale(1 -1)" xlink:href="#linear-gradient-35"/>
    <linearGradient id="linear-gradient-73" x1="321.52" y1="66.91" x2="314.37" y2="92.76" gradientTransform="translate(522.58 -140.1) rotate(149.78) scale(1 -1)" xlink:href="#linear-gradient-35"/>
    <linearGradient id="linear-gradient-74" x1="330.79" y1="69.48" x2="323.64" y2="95.32" gradientTransform="translate(522.58 -140.1) rotate(149.78) scale(1 -1)" xlink:href="#linear-gradient-35"/>
    <linearGradient id="linear-gradient-75" x1="325.18" y1="67.92" x2="318.03" y2="93.77" gradientTransform="translate(535.29 -127.1) rotate(152.92) scale(1 -1)" xlink:href="#linear-gradient-35"/>
    <linearGradient id="linear-gradient-76" x1="334.25" y1="70.43" x2="327.1" y2="96.28" gradientTransform="translate(535.28 -126.37) rotate(152.92) scale(1 -1)" xlink:href="#linear-gradient-35"/>
    <linearGradient id="linear-gradient-77" x1="347.86" y1="248.16" x2="336.2" y2="271.16" gradientTransform="translate(20.85 -21.42) rotate(3.91)" gradientUnits="userSpaceOnUse">
      <stop offset="0" stop-color="#9fb0b9"/>
      <stop offset="1" stop-color="#627f8d"/>
    </linearGradient>
    <linearGradient id="linear-gradient-78" x1="304.02" y1="299.93" x2="294.52" y2="327.68" gradientTransform="translate(20.89 -20.13) rotate(3.91)" xlink:href="#linear-gradient-77"/>
    <linearGradient id="linear-gradient-79" x1="319.1" y1="305.1" x2="309.6" y2="332.85" gradientTransform="translate(20.85 -21.31) rotate(3.91)" xlink:href="#linear-gradient-77"/>
    <linearGradient id="linear-gradient-80" x1="221.4" y1="340.56" x2="218.9" y2="221.56" gradientTransform="matrix(1,0,0,1,0,0)" xlink:href="#linear-gradient-77"/>
    <linearGradient id="linear-gradient-81" x1="196.83" y1="311.61" x2="218.83" y2="262.61" gradientTransform="matrix(1,0,0,1,0,0)" xlink:href="#linear-gradient-77"/>
    <linearGradient id="linear-gradient-82" x1="271.77" y1="255.69" x2="208.77" y2="354.69" gradientTransform="matrix(1,0,0,1,0,0)" xlink:href="#linear-gradient-77"/>
  </defs>
  <g id="SMOKE">
    <g>
      <path class="cls-6" d="m506.62,274.03c10.41-14.75,18.65-37.31,9.11-48.58-9.54-11.28,1.74-39.04-10.84-41.64s-12.15,15.62-13.01,30.36c-.87,14.75-16.92,22.99-16.48,36s1.74,26.46-13.45,31.23c-15.18,4.77-16.92,13.45-25.16,22.12s-62.9,13.88-72.88,29.06c-9.98,15.18-70.71,16.05-81.98,1.74-11.28-14.31-17.79-32.53-34.27-32.53s-7.81-35.57-24.73-40.78-36.44-25.59-30.36-48.58c6.07-22.99-3.9-17.79-3.04-26.46s14.31-8.24,13.45-18.22c-.87-9.98-5.64-5.64-.87-15.18,4.77-9.54,28.63-12.58,25.59-26.03-3.04-13.45,1.48-23.63,25.31-28.2s27.1-11.43,32.97-23.51,20.89-7.84,32.97-9.47,14.01-8.7,2.43-13c-13.29-4.94-56.39-5.64-67.24.87-10.84,6.51-16.92,19.52-23.42,14.75-6.51-4.77-10.84-.87-11.28,8.24s-9.98,10.41-18.22,8.24c-8.24-2.17-8.24,4.34-26.46,14.75-18.22,10.41-38.61,17.35-43.38,30.8-4.77,13.45,3.9,28.2-7.81,35.57-11.71,7.37-19.95,18.22-18.22,34.7,1.74,16.48-23.42,16.05-20.39,49.89,3.04,33.84,18.22,24.29,10.84,47.72-7.37,23.42,3.47,60.3,15.62,70.71s18.65,22.99,16.92,29.5c-1.74,6.51,4.77,13.45,16.92,10.41,12.15-3.04,22.12,19.52,26.46,35.14,4.34,15.62,56.83,3.04,68.97,10.41s72.44,28.2,101.07,5.21c28.63-22.99,81.98-35.14,102.37-46.41,20.39-11.28,43.38-39.04,37.31-47.28-6.07-8.24,31.23-31.23,27.76-41.21-3.47-9.98-13.01-35.57-2.6-50.32ZM238.23,80.98c13.62-5.87,2.21,11.99-14.22,18.03-16.43,6.03.55-12.13,14.22-18.03Zm-67.67,183.8c-6.34,15.62,3.9,36.6-12.69,40.02s-23.91-19.52-17.08-37.58c6.83-18.06,4.88-30.75.98-41.97-3.9-11.22-1.07-25.92,9.27-26.35,11.71-.49,2.44,20.01,10.74,28.31s15.13,21.96,8.78,37.58Zm27.63,43.88c22.4,1.15,32.16,41.93,14.36,37.9-17.8-4.02-30.67-38.74-14.36-37.9Zm88.44,97.06c-3.45,12.06-30.44,16.08-57.43,8.04-26.99-8.04-45.34-14.93-7.47-18.38,12.63-1.15,16.66,6.32,33.88,9.76,17.23,3.45,34.46-11.49,31.01.57Zm148.43-48.22s4.88,8.78-3.9,18.54c-8.78,9.76-82.96,19.52-83.45,4.39s24.89-17.57,49.78-13.66c24.89,3.9,40.07-33.16,46.36-21.47,3.42,6.34-8.78,12.2-8.78,12.2Zm33.67-35.63c-9.76,7.81-11.75-1.94-3.42-10.74,8.78-9.27,13.18,2.93,3.42,10.74Z"/>
      <path class="cls-42" d="m364.34,62.43c-16.62-1.11-10.45,7.18,5.88,9.47s13.71-8.16-5.88-9.47Z"/>
      <path class="cls-48" d="m452.82,109.44c-10.3,1.77-6.53,20.24,6.2,22.85s17.3,8.16,19.26,18.61,15.67,13.39,10.45-7.51-24.49-35.91-35.91-33.95Z"/>
      <path class="cls-81" d="m445.63,195.63c-8.91,0-6.86,16.65,0,13.06s4.24-13.06,0-13.06Z"/>
      <path class="cls-19" d="m431.92,242.32c-7.36-5.77-12.41,8.81-13.39,16.65s-8.49,16.32-26.12,18.61-29.38,17.96-2.29,16.65c27.1-1.31,63.01-35.26,41.79-51.91Z"/>
    </g>
  </g>
  <g id="YELLOW_DOTS" data-name="YELLOW DOTS">
    <g>
      <g>
        <path class="cls-11" d="m466.7,172.19c-27.24.25-43.53,48.5-21.08,48.99,22.45.49,43.82-49.2,21.08-48.99Z"/>
        <path class="cls-46" d="m505.62,156.92c-11.71.11-18.71,20.85-9.06,21.06,9.65.21,18.83-21.15,9.06-21.06Z"/>
        <path class="cls-60" d="m471.4,61.06c-12.57.11-20.08,22.38-9.73,22.6,10.36.23,20.22-22.7,9.73-22.6Z"/>
      </g>
      <g>
        <path class="cls-52" d="m137.38,454.79c-29.19-1.74-50.18,48.73-26.18,50.91,24,2.18,50.55-49.46,26.18-50.91Z"/>
        <path class="cls-76" d="m157.75,505.96c-12.54-.75-21.57,20.95-11.25,21.88s21.73-21.26,11.25-21.88Z"/>
      </g>
    </g>
  </g>
  <g id="GREEN_DOTS" data-name="GREEN DOTS">
    <g>
      <g>
        <circle class="cls-16" cx="140.57" cy="179.94" r="2.55"/>
        <circle class="cls-3" cx="149.49" cy="138.04" r="9.09"/>
        <circle class="cls-27" cx="188.45" cy="154.33" r="7.12"/>
      </g>
      <g>
        <circle class="cls-41" cx="407.22" cy="161.56" r="2.46"/>
        <circle class="cls-15" cx="434.82" cy="146.69" r="5.28"/>
      </g>
    </g>
  </g>
  <g id="PLANT">
    <g>
      <g>
        <path class="cls-31" d="m398.24,509.29s22.72-51.1,62.2-71.52c39.48-20.42,62.17,17.02,20.92,31.06-41.26,14.04-83.11,40.46-83.11,40.46Z"/>
        <path class="cls-4" d="m402.21,501.36s1-1.57,2.76-4.33c.87-1.38,1.98-3.02,3.22-4.91.62-.95,1.32-1.93,2.04-2.98.71-1.05,1.47-2.15,2.29-3.28,1.6-2.28,3.41-4.69,5.32-7.24.98-1.25,1.98-2.54,3.01-3.86,1.06-1.29,2.13-2.61,3.23-3.96,1.13-1.31,2.28-2.64,3.45-3.99,1.17-1.34,2.44-2.63,3.65-3.98,1.2-1.36,2.54-2.61,3.82-3.93,1.27-1.33,2.64-2.55,4-3.8l2.02-1.88,2.1-1.78c1.39-1.19,2.77-2.38,4.24-3.44.72-.55,1.44-1.09,2.15-1.63l1.06-.82,1.1-.75c1.47-.98,2.9-2,4.35-2.92,1.48-.87,2.94-1.73,4.37-2.57,1.38-.81,2.92-1.59,4.29-2.24,2.83-1.32,5.62-2.38,8.25-3.14,5.27-1.52,9.91-1.83,13.13-1.61,1.61.11,2.88.3,3.73.46.85.19,1.31.28,1.31.28,0,0-.44-.16-1.27-.45-.83-.27-2.07-.65-3.7-.93-3.24-.59-8.07-.76-13.65.45-2.79.59-5.75,1.48-8.79,2.74-1.56.64-2.99,1.27-4.56,2.09-1.5.81-3.04,1.64-4.6,2.49-3.01,1.87-6.15,3.78-9.08,6.07-1.52,1.08-2.95,2.29-4.39,3.49l-2.17,1.81-2.08,1.91c-1.38,1.29-2.77,2.56-4.05,3.93-1.29,1.36-2.65,2.65-3.86,4.05-2.52,2.72-4.81,5.56-7.02,8.3-1.06,1.4-2.11,2.78-3.13,4.13-.97,1.39-1.93,2.74-2.85,4.06-1.82,2.66-3.47,5.22-4.91,7.63-1.49,2.38-2.72,4.64-3.83,6.63-1.09,2-2.01,3.77-2.73,5.23-.75,1.45-1.26,2.63-1.64,3.42-.37.79-.57,1.22-.57,1.22Z"/>
        <path class="cls-65" d="m483.23,446.83s-1.46.47-3.95,1.44c-1.24.5-2.76,1.09-4.46,1.85-.85.38-1.76.77-2.72,1.2-.95.45-1.94.92-2.98,1.41-2.09.96-4.29,2.11-6.63,3.32-2.31,1.26-4.78,2.53-7.25,4.01-2.47,1.46-5.06,2.93-7.58,4.58-1.27.82-2.56,1.61-3.83,2.46-1.27.85-2.54,1.71-3.81,2.57-2.54,1.71-4.98,3.58-7.42,5.35-.61.45-1.21.89-1.81,1.34-.58.47-1.16.93-1.74,1.4-1.15.93-2.29,1.84-3.41,2.74-2.28,1.75-4.3,3.66-6.3,5.38-.98.88-1.97,1.69-2.86,2.55-.89.86-1.75,1.69-2.58,2.49-1.65,1.6-3.18,3.04-4.46,4.4-1.27,1.37-2.38,2.56-3.29,3.54-1.81,1.98-2.81,3.12-2.81,3.12,0,0,1.2-.96,3.26-2.66,1.02-.86,2.26-1.9,3.68-3.1,1.42-1.2,3.09-2.46,4.85-3.92,1.77-1.44,3.68-3,5.76-4.58,1.03-.8,2.09-1.62,3.18-2.46.54-.42,1.08-.85,1.64-1.28.56-.42,1.13-.84,1.7-1.26,2.29-1.68,4.62-3.48,7.06-5.2,2.44-1.73,4.87-3.54,7.4-5.21,1.25-.86,2.49-1.73,3.73-2.59,1.24-.86,2.52-1.66,3.76-2.48,1.25-.82,2.48-1.64,3.71-2.44,1.23-.79,2.45-1.57,3.65-2.33,2.4-1.53,4.75-2.95,6.96-4.35,2.25-1.31,4.34-2.64,6.32-3.78,1.97-1.15,3.78-2.2,5.38-3.13,1.62-.91,3.03-1.71,4.19-2.37,1.17-.65,2.09-1.15,2.71-1.5.63-.34.97-.52.97-.52Z"/>
      </g>
      <g>
        <path class="cls-5" d="m389.57,519.56s-14.45-47.56,4.17-60.26c18.62-12.7.28-50.38,21.11-60.85,20.84-10.47,14.67-56.74,48.37-55.42,33.7,1.32,24.11,35.62-1,54.04-25.11,18.42-5,35.37-31.51,56.96-26.51,21.59-7.1,49.91-41.14,65.53Z"/>
        <path class="cls-40" d="m384.55,492.76s-.02-.71-.06-2.05c-.03-1.34-.02-3.29.06-5.78.09-2.48.32-5.49.94-8.87.16-.84.37-1.7.57-2.58.27-.86.46-1.78.81-2.67.58-1.81,1.43-3.62,2.48-5.37,1.06-1.75,2.49-3.34,4.2-4.63.46-.34.92-.69,1.39-1.03.47-.37.94-.65,1.42-1.11.47-.45.97-.89,1.42-1.36.42-.49.83-.99,1.25-1.49,3.17-4.22,4.55-9.64,5.18-15.02.65-5.42.7-10.99.94-16.54.27-5.52.72-11.19,2.81-16.09,1.04-2.43,2.51-4.62,4.49-6.27.52-.38,1.02-.78,1.55-1.14l1.77-1.02c.61-.36,1.21-.69,1.83-1.08.63-.46,1.28-.93,1.89-1.41,2.33-1.93,4.16-4.28,5.66-6.7,1.51-2.42,2.73-4.93,3.83-7.41,2.18-4.97,3.81-9.89,5.55-14.43,1.74-4.54,3.53-8.76,5.69-12.35,2.12-3.61,4.68-6.51,7.38-8.55,2.7-2.05,5.52-3.16,7.89-3.78.6-.14,1.17-.27,1.7-.4.54-.11,1.05-.16,1.53-.23.48-.07.92-.13,1.32-.19.41-.04.78-.04,1.11-.06,1.33-.06,2.05-.1,2.05-.1,0,0-.71-.03-2.05-.08-.33,0-.71-.04-1.12-.03-.41.02-.86.05-1.35.07-.49.04-1.01.04-1.57.11-.55.09-1.14.19-1.76.3-2.46.49-5.47,1.44-8.45,3.41-2.98,1.95-5.9,4.87-8.25,8.54-1.24,1.8-2.3,3.81-3.39,5.88-1.03,2.09-2.02,4.29-2.97,6.56-1.91,4.54-3.73,9.38-5.91,14.16-2.21,4.73-4.88,9.53-8.89,12.88l-1.49,1.11c-.57.36-1.21.7-1.82,1.06l-1.91,1.09c-.64.42-1.25.91-1.88,1.36-2.41,1.98-4.22,4.64-5.42,7.43-1.19,2.81-1.85,5.74-2.26,8.64-.41,2.9-.59,5.77-.7,8.6-.23,5.65-.11,11.15-.65,16.36-.53,5.17-1.64,10.15-4.3,13.92-.35.45-.71.89-1.05,1.34-.37.41-.76.77-1.13,1.17-.36.39-.9.74-1.33,1.11-.46.37-.91.74-1.36,1.1-1.89,1.56-3.4,3.43-4.46,5.38-2.16,3.92-3.01,7.9-3.45,11.38-.42,3.49-.46,6.55-.39,9.05.06,2.5.27,4.46.4,5.79.15,1.33.23,2.04.23,2.04Z"/>
        <path class="cls-10" d="m461.66,368.22s-1.85,1.5-4.87,4.37c-1.5,1.44-3.32,3.21-5.3,5.33-1,1.06-2.06,2.18-3.13,3.41-1.1,1.21-2.2,2.52-3.34,3.9-2.3,2.74-4.67,5.83-7.03,9.2-1.19,1.68-2.32,3.47-3.52,5.27-1.1,1.86-2.28,3.74-3.34,5.73-1.03,2-2.18,3.99-3.1,6.13-.48,1.06-.97,2.12-1.46,3.19-.42,1.1-.84,2.21-1.26,3.32-.41,1.1-.82,2.2-1.23,3.31-.4,1.11-.8,2.22-1.2,3.33-.84,2.2-1.72,4.33-2.63,6.5-1.85,4.33-3.85,8.6-5.91,12.78-2.07,4.17-4.09,8.31-6.03,12.33-1.96,4.01-3.69,7.99-5.25,11.79-.77,1.91-1.46,3.79-2.14,5.6-.6,1.84-1.18,3.62-1.74,5.32-.47,1.73-.93,3.39-1.36,4.97-.39,1.59-.68,3.11-.99,4.53-.33,1.42-.54,2.76-.72,4.01-.18,1.24-.35,2.39-.51,3.42-.23,2.07-.32,3.71-.43,4.82-.09,1.11-.14,1.7-.14,1.7,0,0,.44-2.33,1.2-6.41.24-1.01.5-2.12.79-3.34.29-1.21.57-2.53,1-3.91.41-1.38.79-2.86,1.29-4.39.51-1.53,1.06-3.13,1.62-4.81.64-1.65,1.31-3.36,2-5.14.77-1.75,1.5-3.57,2.34-5.42,1.69-3.68,3.56-7.52,5.58-11.48,1.99-3.96,4.19-8.01,6.27-12.21,2.11-4.19,4.17-8.5,6.08-12.89.92-2.21,1.83-4.48,2.65-6.7.39-1.12.79-2.23,1.18-3.34.4-1.1.8-2.2,1.19-3.3.4-1.08.79-2.15,1.18-3.22.45-1.05.9-2.09,1.34-3.12.84-2.1,1.91-4.06,2.87-6.04.98-1.97,2.11-3.81,3.11-5.69,1.11-1.81,2.15-3.61,3.25-5.3,2.21-3.39,4.37-6.56,6.49-9.39.53-.71,1.05-1.41,1.55-2.09.52-.67,1.03-1.32,1.53-1.96.98-1.29,1.95-2.48,2.86-3.59,1.83-2.23,3.47-4.14,4.84-5.7,1.38-1.55,2.47-2.76,3.23-3.58.77-.81,1.18-1.23,1.18-1.23Z"/>
      </g>
    </g>
  </g>
  <g id="LAMP">
    <g>
      <g>
        <path class="cls-32" d="m344.51,535.82s5.97,16.49,20.31,14.81,15.05-18.4,15.05-18.4l-35.36,3.58Z"/>
        <path class="cls-28" d="m366.49,539.77c-20.32,2.54-35.55-3.81-36.82-5.71-1.27-1.91-7.31-27.62-7.31-28.89s3.97-17.29,28.58-20.32c20.63-2.54,37.77,6.03,38.72,6.99.96.95,3.81,29.84,4.13,30.79s-6.98,14.6-27.3,17.14Z"/>
        <path class="cls-62" d="m389.66,491.84s-.4,17.35-28.02,23.04c-27.63,5.7-39.28-9.71-39.28-9.71,0-1.27,3.97-17.29,28.58-20.32,20.63-2.54,37.77,6.03,38.72,6.99Z"/>
        <g>
          <path class="cls-29" d="m327.85,514.98s.21.14.6.39c.2.12.43.3.73.46.3.15.65.32,1.03.51.74.42,1.75.76,2.84,1.25.57.21,1.17.43,1.8.66.63.24,1.3.48,2.01.69.7.23,1.44.46,2.2.71.77.22,1.56.45,2.37.68,1.62.49,3.38.85,5.16,1.32,1.81.37,3.66.82,5.58,1.13.95.17,1.91.35,2.88.52.97.13,1.95.27,2.92.4,1.94.33,3.91.44,5.83.66,1.93.13,3.83.26,5.67.34,1.84-.02,3.63.08,5.32.03,1.69-.09,3.29-.11,4.77-.21,1.47-.14,2.83-.27,4.03-.38,1.2-.1,2.23-.33,3.09-.44,1.72-.25,2.71-.39,2.71-.39,0,0-.95.28-2.63.78-.84.22-1.85.59-3.05.81-1.2.23-2.55.49-4.03.77-1.48.22-3.11.37-4.82.56-1.72.15-3.54.18-5.42.24-1.88-.03-3.83-.05-5.8-.17-1.96-.2-3.97-.29-5.96-.61-.99-.15-1.98-.3-2.97-.44-.98-.19-1.96-.38-2.93-.56-1.95-.33-3.81-.89-5.64-1.33-1.8-.53-3.55-1.01-5.17-1.61-.81-.29-1.6-.57-2.36-.84-.75-.31-1.47-.61-2.17-.9-1.4-.54-2.62-1.21-3.72-1.73-1.07-.61-2.01-1.08-2.74-1.61-.36-.25-.69-.47-.97-.66-.27-.21-.47-.41-.65-.56-.35-.31-.53-.48-.53-.48Z"/>
          <path class="cls-63" d="m329.41,522.22s.44.32,1.23.83c.4.25.87.56,1.43.9.55.35,1.19.71,1.88,1.11,1.39.78,3.02,1.67,4.81,2.5.45.21.9.44,1.36.64.47.2.94.4,1.42.61.94.45,1.94.78,2.92,1.17.98.39,1.98.71,2.96,1.06.99.31,1.97.62,2.91.91.96.26,1.88.51,2.76.75.88.26,1.73.4,2.5.61.78.17,1.49.39,2.13.49.64.13,1.2.25,1.66.34.92.2,1.45.34,1.45.34,0,0-.54.03-1.49.06-.47,0-1.05.03-1.71.02-.67.02-1.41-.06-2.22-.12-.81-.08-1.7-.1-2.62-.28-.92-.16-1.9-.29-2.9-.51-.99-.25-2.03-.47-3.06-.78-1.02-.34-2.07-.66-3.09-1.04-1-.43-2.04-.8-3-1.28-.98-.45-1.91-.94-2.8-1.46-.91-.48-1.72-1.04-2.51-1.55-.78-.52-1.49-1.05-2.13-1.56-.64-.51-1.21-.99-1.69-1.45-.5-.44-.89-.87-1.22-1.2-.65-.7-.97-1.14-.97-1.14Z"/>
          <path class="cls-53" d="m366.8,518.49s1.38-.38,3.45-.75c1.03-.2,2.24-.39,3.53-.58.64-.09,1.31-.19,1.99-.29.68-.09,1.36-.18,2.05-.26,1.37-.17,2.75-.33,4.04-.46.64-.09,1.27-.14,1.86-.2.59-.08,1.15-.13,1.67-.18,1.03-.13,1.91-.19,2.52-.27.61-.06.98-.08.98-.08,0,0-.31.18-.86.46-.55.3-1.37.64-2.38,1.01-1,.36-2.2.7-3.49.99-.65.13-1.32.29-2,.4-.68.11-1.38.22-2.08.31-1.4.17-2.8.28-4.12.31-1.32.05-2.55.03-3.61-.03-2.11-.1-3.52-.39-3.52-.39Z"/>
        </g>
      </g>
      <path class="cls-74" d="m385.13,466.4c-.22,5.62,2.16,26.58,2.16,26.58,0,0-3.3,14.1-27.13,18.74-27.87,5.43-35.32-9.66-35.32-9.66-4.54-15.99-8.43-27.23-13.4-28.53-18.01-4.69-44.38-23.89-50.68-59.75-.09-.53-.18-1.07-.26-1.61-1.85-12.04-.92-25.41,3.13-38.08,7.92-24.85,27.78-47.1,62.06-51.88,17.11-2.38,34.91.07,50.02,8.03,18.3,9.64,32.68,27.36,37.15,54.35,2.95,17.82.17,32.72-4.6,44.74-8.41,21.23-22.99,33.49-23.13,37.07Z"/>
      <path class="cls-71" d="m351.22,488.55c-14.28,1.82-19.47,10.65-19.47,11.68s7,9.51,26.48,6.49c18.43-2.86,21.81-11.42,21.55-12.72s-10.52-7.75-28.56-5.45Z"/>
      <path class="cls-67" d="m374.02,405.76c-1.25-2.13-2.77-4.01-4.52-5.51s-3.74-2.62-5.92-3.22c-2.38-.66-4.83-.99-7.27-.99-4.99-.01-9.97,1.42-14.19,4.48-1.1.8-2.15,1.71-3.13,2.74-2.93-2.25-6.5-3.79-10.54-4.27-.72-.09-1.44-.13-2.17-.13-5.29,0-10.46,2.26-14.3,6.2-3.86,3.95-6.38,9.61-6.38,16.35,0,2.28.29,4.68.91,7.18,1.14,4.65,3.6,8.78,6.68,12.52,4.62,5.61,10.66,10.42,16.12,14.91,2.72,2.24,5.3,4.41,7.47,6.52,2.18,2.12,3.94,4.19,5.07,6.19,4.67,8.31,5.33,18.38,5.32,22.97,0,.2,0,.38-.01.56,0,.24,0,.47-.01.67h0c.15.7.76,1.22,1.49,1.22.82,0,1.48-.64,1.52-1.44v-.17c.01-.26.01-.54.01-.84-.01-4.85-.62-15.33-5.71-24.44-1.79-3.18-4.66-6.13-7.98-9.09-4.98-4.44-11.04-8.91-16.19-13.86-2.58-2.48-4.93-5.06-6.82-7.79-1.88-2.73-3.3-5.59-4.05-8.65-.56-2.27-.82-4.43-.82-6.46.01-5.99,2.22-10.85,5.52-14.25,3.31-3.4,7.74-5.3,12.16-5.3.61,0,1.21.03,1.82.11,3.44.41,6.45,1.69,8.95,3.58-1.88,2.51-3.42,5.54-4.49,9.09-.64,2.13-.93,4.12-.93,5.95,0,3.51,1.08,6.41,2.74,8.44,1.66,2.03,3.92,3.22,6.23,3.23,1.62,0,3.25-.63,4.48-1.89,1.24-1.26,2.08-3.07,2.42-5.35.17-1.17.26-2.35.26-3.51,0-5.48-1.9-10.74-5.26-14.83-.41-.49-.83-.97-1.28-1.43.84-.86,1.73-1.62,2.66-2.3,3.67-2.66,8-3.91,12.43-3.91,2.17,0,4.35.3,6.47.88,1.7.47,3.31,1.36,4.77,2.61,2.19,1.88,4.06,4.57,5.36,7.74,1.3,3.16,2.04,6.79,2.04,10.5,0,4.72-1.19,9.55-3.88,13.81-3.66,5.79-8.05,13.5-11.53,21.92-3.48,8.42-6.08,17.55-6.09,26.24,0,3.31.39,6.57,1.26,9.68.23.83,1.1,1.31,1.92,1.03h.02c.76-.26,1.16-1.08.94-1.86-.78-2.8-1.14-5.77-1.14-8.85,0-8.08,2.46-16.89,5.86-25.09,3.39-8.2,7.7-15.78,11.29-21.47,3.04-4.79,4.35-10.19,4.35-15.41s-1.44-10.76-3.93-15.01Zm-33.84,2.82c2.92,3.54,4.58,8.14,4.58,12.93,0,1.01-.08,2.04-.23,3.06-.27,1.82-.89,2.99-1.59,3.69-.69.7-1.47.99-2.34,1-1.24,0-2.72-.68-3.91-2.13-1.18-1.45-2.06-3.64-2.06-6.54,0-1.51.24-3.21.8-5.09.95-3.13,2.26-5.76,3.85-7.93.32.33.62.66.9,1.01Z"/>
      <path class="cls-1" d="m387.29,492.98s-3.3,14.1-27.13,18.74c-27.87,5.43-35.32-9.66-35.32-9.66-4.5-15.84-8.36-27.02-13.26-28.49-.09-.03-.14-.04-.14-.04-18.01-4.69-44.38-23.89-50.68-59.75-2.19-12.46-1.36-26.45,2.87-39.69,10.83,58.43,93.75,91.18,144.63,55.24-7.32,18.48-19.32,30.17-22.39,35.24-.46.76-.72,1.37-.74,1.83-.22,5.62,2.16,26.58,2.16,26.58Z"/>
      <path class="cls-37" d="m375.71,330.24c-5,9.31-14.01,19.33-22.49,21.96-9.4,2.92-34.68-.32-34.68-.32,0,0-43.07,24.74-58.04,60.29-1.85-12.04-.92-25.41,3.13-38.08,7.92-24.85,27.78-47.1,62.06-51.88,17.11-2.38,34.91.07,50.02,8.03Z"/>
      <path class="cls-51" d="m387.29,492.98s-3.3,14.1-27.13,18.74c-27.87,5.43-35.32-9.66-35.32-9.66-4.5-15.84-8.36-27.02-13.26-28.49,2.58.75,41.58,11.64,74.29-9-.46.76-.72,1.37-.74,1.83-.22,5.62,2.16,26.58,2.16,26.58Z"/>
    </g>
  </g>
  <g id="RIGHT_LEG" data-name="RIGHT LEG">
    <g>
      <polygon class="cls-23" points="235.95 477.31 253.21 497.32 260.8 486.97 250.1 466.27 235.95 477.31"/>
      <path class="cls-35" d="m338.05,330.81c-7.65,7.06-120.03,69.42-120.03,69.42l36.48,67.67c-5.3,11.18-21.18,17.06-21.18,17.06,0,0-30.82-34.86-48.98-56.59-6.8-8.15-11.83-14.45-12.8-16.37-3.53-7.06-3.53-18.83-.59-26.48.41-1.07,2.78-3.7,6.55-7.46,23.22-23.15,99.79-88.86,99.95-91.38,3.53-55.9,51.18-57.07,66.48-37.07,15.3,20,1.77,74.14-5.88,81.2Z"/>
      <path class="cls-57" d="m338.05,330.81c-7.65,7.06-120.03,69.42-120.03,69.42l36.48,67.67c-5.3,11.18-21.18,17.06-21.18,17.06,0,0-30.82-34.86-48.98-56.59,8.4-7.71,9.04-20.88,9.94-25.66,1.04-5.53,51.54-27.79,52.97-28.42-1.4.22-48.11,7.7-51.57,7.01-3.51-.7,56.52-20.71,50.9-19.66-4.59.86-48.56,12.97-69.08,16.42,23.22-23.15,99.79-88.86,99.95-91.38,3.53-55.9,51.18-57.07,66.48-37.07,15.3,20,1.77,74.14-5.88,81.2Z"/>
      <g>
        <path class="cls-79" d="m179.17,399.09c11.83,1.28,23.7,0,35.56.87-5.87,1.22-11.85,1.62-17.83,1.68-5.94-.12-12.16-.2-17.73-2.55h0Z"/>
        <path class="cls-79" d="m186.69,406.03c.78.86,1.9.99,2.96,1.03,3.29.05,6.54-.67,9.79-1.27,4.37-.82,8.74-1.79,13.26-2.37-4.53,2.66-22.89,8.31-26.02,2.6h0Z"/>
        <path class="cls-79" d="m306.67,303.39c.15,6.99-1.75,15.86-2.31,22.84,0,.36-.07.81-.35,1.11-1.73,1.54-3.77,2.24-5.72,3.23-15.1,6.7-31.07,12.12-46.83,17.06,10.48-4.7,26.06-10.68,36.89-15.01,4.78-2.03,9.99-3.68,14.38-6.41-.02.04-.06.11-.07.19-.01.05,0,.17,0,.1.87-7.79,3.19-15.33,4.03-23.1h0Z"/>
        <path class="cls-79" d="m236.13,357.75c8.35-2.66,16.66-5.42,25.13-7.69,8.48-2.14,17-4.7,25.76-5.32-8.34,2.16-16.9,5.07-25.23,7.25-8.48,2.18-16.95,4.66-25.65,5.76h0Z"/>
        <path class="cls-79" d="m281.23,341.56c-3.53,1.08-7.01,2.34-10.27,4.01-3.12,1.6-6.41,3.57-8.31,6.54-1.72,2.81-1.01,5.99-.94,9.11-.18,2.39-2.74,3.41-4.66,4.1-5.71,1.97-11.64,2.98-17.32,5-10.5,3.48-20.67,7.79-30.8,12.29,6.39-3.73,13.02-7.07,19.82-10.01,6.79-2.95,13.83-5.5,21.06-7.25,3.01-.82,6.17-1.41,8.91-2.89,1.15-.58,1.25-1.44,1.12-2.64-.3-2.84-.17-6.1,1.49-8.56,2.25-3.23,5.73-5.07,9.21-6.59,3.46-1.4,7.03-2.48,10.68-3.13h0Z"/>
        <path class="cls-79" d="m187.84,392.73c16.42-6.15,32.95-12.07,50.02-16.19-8.04,3.54-16.31,6.46-24.64,9.24-8.36,2.63-16.73,5.45-25.38,6.95h0Z"/>
        <path class="cls-79" d="m202.59,391.29c-1.24,1.19-4.42,3.86-3.19,5.51.79.92,1.68,2.06,2.3,3.34.89,1.71,1,4.06,0,5.85-.02.06-.03.1-.03.14.49,1.38,2.4,2.46,3.37,3.82,1.82,2.02,2.69,5.04,1.88,7.65-.09-2.59-1.13-4.87-3.03-6.58-1.47-1.59-5.15-3.2-3.93-6,.14-.31.26-.63.34-.95.47-1.58-.3-3.35-1.15-4.77,0,0-1.05-1.63-1.05-1.63-1.63-2.97,2.18-5.38,4.47-6.39h0Z"/>
        <path class="cls-79" d="m207.79,423.67c-.15.55.05,1.05.46,1.44,1.16,1.16,2.43,2.25,3.53,3.49,9.64,11.94,18.31,24.91,26.08,38.15-8.45-10.17-16.01-21.01-23.23-32.07-1.78-2.79-3.49-5.53-5.61-8.07-.61-.83-1.77-1.81-1.23-2.95h0Z"/>
        <path class="cls-79" d="m233.81,475.42c4.81-3.34,9.98-6.25,14.17-10.41-1.94,5.89-8.24,9.66-14.17,10.41h0Z"/>
      </g>
      <g>
        <path class="cls-82" d="m248.37,491.72s5.8,15.83,7.68,34.11-1.34,29.84-1.34,35.75,6.08,6.72,6.08,6.72l28.87-70.98s-15.18-9.81-30.81-16.05l-10.48,10.45Z"/>
        <path class="cls-2" d="m282.38,492.92c-3.25,1.5-4.18,23.66-4.76,24.64s-6.82,3.51-7.79,5.26-4.28,23.18-6.43,31.36-4.35,12.05-3.54,13.91,2.57,2.84,5.1-2.23,29.8-62.52,30.19-64.86-2.09-7.28-3.26-8.06-5.91-1.68-9.5-.02Z"/>
      </g>
    </g>
  </g>
  <g id="LEFT_LEG" data-name="LEFT LEG">
    <g>
      <g>
        <path class="cls-47" d="m157.03,352.95l-19.88-2.74s-37.38,12.95-39.93,14.95-11.31,12.95-8.94,20.97,8.57,12.22,13.13,13.13,55.8-30.82,57.26-32.28,5.47-11.49-1.64-14.04Z"/>
        <path class="cls-25" d="m145.37,351.55s-6.65-4.54-8.01-4.39-15.42,7.41-23.74,9.68-17.09,6.05-21.78,11.04-6.65,14.97-5.75,18.3,8.01,12.1,11.49,13.61,9.22-2.27,9.22-2.27c0,0-5.14,1.06-6.65.15s-4.84-7.71-5.75-8.47,4.23-3.02,4.23-3.02l-2.27-8.01s-4.39.15-4.69-.3,2.27-8.77,4.39-10.43,19.96-6.05,21.32-6.65,1.51-2.72,1.97-3.02,26.01-6.2,26.01-6.2Z"/>
      </g>
      <path class="cls-24" d="m179.83,342.8l-27.17,10.04s-8.08,7.83,1.47,14.69l28.4-5.14-2.69-19.59Z"/>
      <g>
        <path class="cls-13" d="m384.87,311.56c0,8.65-12.53,31.55-21.61,35.01-9.08,3.46-72.17-6.05-72.17-6.05l-101.57,27.23s-11.32-1.62-14.66-8.49c-.52-1.07-.84-2.27-.9-3.61-.43-9.94,4.32-17.29,4.32-17.29,0,0,24.91-12.46,49.57-24.36,20.35-9.82,40.52-19.26,46.38-21.02,12.16-3.65,39.52-.83,42.88-.47.11,0,.22.03.34.04,0,0-.13-2.09-.24-4.86-.22-4.89-.41-11.92.14-13.3.86-2.16,42.02-6.04,62.77-2.59,0,0,4.75,31.12,4.75,39.76Z"/>
        <path class="cls-30" d="m340.53,293.35s-47.7,21.79-54.68,21.79c-4.88,0-36.15-.91-58-1.14,20.35-9.82,40.52-19.26,46.38-21.02,12.16-3.65,39.52-.83,42.88-.47.11,0,.22.03.34.04,0,0-.13-2.09-.24-4.86,13.61,3.08,23.32,5.66,23.32,5.66Z"/>
        <path class="cls-68" d="m384.87,311.56c0,8.65-12.53,31.55-21.61,35.01-9.08,3.46-72.17-6.05-72.17-6.05l-101.57,27.23s-11.32-1.62-14.66-8.49c25.92-5.14,104.35-28.26,111.39-31.32,8.08-3.51,8.43-15.1,11.94-16.5,3.51-1.4,26.33,14.39,29.84,15.45,3.51,1.05-4.57-8.78-1.76-9.48s23.87,8.77,30.54,7.37c6.67-1.4,7.98-26.9-39.36-32.23,0,0-.96-16-.1-18.16.86-2.16,42.02-6.04,62.77-2.59,0,0,4.75,31.12,4.75,39.76Z"/>
        <g>
          <path class="cls-79" d="m320.09,292.71c12.36.31,24.77,1.97,36.62,5.6-12.36-.91-24.6-2.57-36.62-5.6h0Z"/>
          <path class="cls-79" d="m330.35,292.01c4.78-1.43,9.8-1.59,14.75-1.53,4.95.18,9.93.81,14.63,2.46-8.53-.21-20.74-.69-29.39-.93h0Z"/>
          <path class="cls-79" d="m368.83,294.57c-1.26,4.57-3.46,8.69-3.96,13.24-.03,2.69,1.32,5.1,3.03,7.29-2.66-1.33-4.74-4.16-4.92-7.25.17-5,2.83-9.48,5.86-13.27h0Z"/>
          <path class="cls-79" d="m373.96,296.44c-1.72,7.54-3.73,15.37-7,22.41-2.23,3.47-5.3,5.89-8.31,8.54-3.11,2.6-6.33,5.04-9.62,7.41-8.02-1.22-16.04-2.46-24.03-3.82-6.89-1.11-16.61-2.94-23.56-4.22,7.96.65,15.88,1.66,23.8,2.67,7.91,1.02,15.81,2.16,23.7,3.34,0,0-.72.17-.72.17,6.01-4.54,12.76-8.93,17.43-14.87,3.46-6.83,5.88-14.36,8.34-21.63h0Z"/>
          <path class="cls-79" d="m305.86,320.23c13.62,6.55,27.09,13.47,39.65,21.92-7.02-2.87-13.74-6.33-20.4-9.92-6.58-3.71-13.27-7.35-19.25-12h0Z"/>
          <path class="cls-79" d="m331.52,326.52c11.84,2.89,23.59,6.23,34.75,11.19-6.04-1.01-11.9-2.67-17.74-4.46-5.79-1.92-11.63-3.79-17.01-6.73h0Z"/>
          <path class="cls-79" d="m298.87,327.92c-8.65,3.29-17.36,6.39-26.14,9.3-11.04,3.53-22,7.42-33.44,9.61-.73.11-1.84.23-2.56-.13-1.34-.22-2.68.32-4.06.71-6.47,2.19-12.74,5.5-19.34,7.57-6.46,1.79-13.64,3.74-20.12,5.36,6.28-2.2,13.34-4.52,19.71-6.61,6.54-2.37,12.53-5.74,19.15-8.12,1.6-.55,4.11-1.33,5.62-.62,2.64-.08,5.33-.97,7.97-1.59,17.55-4.71,35.71-10.55,53.2-15.48h0Z"/>
          <path class="cls-79" d="m183.65,342.15c-2.03,3.48-2.91,7.79-1.39,11.55.75,1.79,2.03,3.43,3.36,5.02,1.35,1.59,2.83,3.1,4.33,4.66-4.81-2.33-10.02-6.53-10.27-12.35.02-3.29,1.26-6.92,3.98-8.88h0Z"/>
        </g>
      </g>
    </g>
  </g>
  <g id="RIGHT_ARM" data-name="RIGHT ARM">
    <g>
      <path class="cls-44" d="m268.86,267.62c-.49,1.53-38.15.23-38.15.23,0,0,1.68-47.08,3.39-74.77v-.14c.39-6.24.78-11.49,1.15-14.98.17-1.61.36-3.21.58-4.78,2.26-16.9,7.09-31.29,20.69-37.88,0,0,8.02,18.18,14.38,37.86,2.25,6.98,4.3,14.15,5.7,20.77.88,4.18,1.51,8.13,1.77,11.67,1.86,25.03-9.02,60.5-9.51,62.02Z"/>
      <path class="cls-72" d="m276.6,193.93c-16.53-3.84-34.52-2.01-42.5-.85v-.14s1.73-19.76,1.73-19.76c7.59-1,21.39-2.17,35.07-.02,2.25,6.98,4.3,14.15,5.7,20.77Z"/>
    </g>
  </g>
  <g id="BODY">
    <g>
      <g>
        <path class="cls-61" d="m391.03,269.4c-.08.41-2.87,5.35-10.95,11.26-6.29,4.62-21.94,10.51-39.56,12.68-3.88.48-7.89.8-12.01.89-23.43.52-51.98-12.59-53.39-14.85-1.45-2.33-.46-16.19-.46-16.19l58.41-2.4,55.44-2.26s2.6,10.44,2.52,10.85Z"/>
        <path class="cls-58" d="m391.03,269.4c-.08.41-2.87,5.35-10.95,11.26-6.29,4.62-21.94,10.51-39.56,12.68.01-12.68-7.14-24.55-7.62-24.68,0,0,.06-3.73.17-7.86l55.44-2.26s2.6,10.44,2.52,10.85Z"/>
      </g>
      <g>
        <g>
          <path class="cls-59" d="m273.22,221.96c-23.83-28.04-30.33-66.56-27.39-79.43,2.83-12.52,17.92-23.16,46.99-27.46,41.45-6.13,74.24,5.54,86.95,21.88,1.09,1.39,2.14,3.1,3.16,5.07,3.53,6.77,6.77,16.74,9.58,27.8l-.31.9s3.98,47.09.79,77.3c-.58,5.53-3.03,10.59-7.05,14.08-13.45,11.68-33.74,21.92-56.21,21.24-14.8-.45-27.25-3.23-36.86-7.21-16.03-6.66-24.03-16.65-22.19-24.99,2.88-12.99,2.53-29.17,2.53-29.17Z"/>
          <path class="cls-36" d="m360.44,206.54c-7.77-28.83,0-41.5,0-41.5l11.64-21.87s3.87-.79,10.85-1.15c3.53,6.77,6.77,16.74,9.58,27.8l-.31.9s3.98,47.09.79,77.3c-.58,5.53-3.03,10.59-7.05,14.08-13.45,11.68-33.74,21.92-56.21,21.24-14.8-.45-27.25-3.23-36.86-7.21,46.29,5.16,75.06-41.88,67.57-69.58Z"/>
          <path class="cls-66" d="m245.82,142.53l-.31,2.53c-.05.85-.05,1.69-.08,2.53-.06.84.02,1.69.04,2.53.04.84.03,1.69.13,2.53.17,1.69.29,3.39.58,5.06l.38,2.53.49,2.52.49,2.54.59,2.52.6,2.53.71,2.51.7,2.53.81,2.51c.54,1.68,1.07,3.37,1.72,5.01.65,1.65,1.19,3.36,1.92,4.99.7,1.65,1.37,3.32,2.11,4.96l2.35,4.9c.82,1.63,1.73,3.21,2.59,4.83.83,1.65,1.85,3.18,2.8,4.76l1.45,2.37,1.59,2.29,1.6,2.3c.52.78,1.08,1.53,1.68,2.25l3.5,4.43.31.4v.46c.05,3.56-.05,7.1-.25,10.69-.19,3.61-.52,7.25-1.02,10.91-.26,1.84-.56,3.68-.91,5.53-.39,1.91-.85,3.59-.73,5.15.21,3.31,1.89,6.47,4.06,9.1,2.2,2.67,4.9,4.91,7.78,6.89,2.9,1.98,6.02,3.64,9.23,5.11,1.61.75,3.25,1.41,4.91,2.05,1.66.63,3.35,1.2,5.06,1.74,1.71.53,3.43,1,5.17,1.45,1.74.45,3.49.86,5.25,1.24-1.78-.23-3.56-.49-5.33-.79-1.77-.32-3.52-.7-5.27-1.12-1.74-.43-3.48-.9-5.19-1.44-1.71-.54-3.42-1.11-5.09-1.77-3.35-1.28-6.59-2.89-9.68-4.79-3.06-1.9-5.96-4.16-8.42-6.97-1.22-1.4-2.33-2.94-3.2-4.68-.86-1.72-1.51-3.65-1.66-5.72-.17-2.15.38-4.15.69-5.86.32-1.79.58-3.58.81-5.38.43-3.57.7-7.14.9-10.69.18-3.51.27-7.04.22-10.46l.32.86-3.61-4.54c-.61-.74-1.17-1.52-1.7-2.33l-1.62-2.37-1.6-2.36-1.46-2.44c-.96-1.63-1.99-3.2-2.82-4.89-.86-1.66-1.76-3.3-2.56-4.98l-2.29-5.05c-.72-1.69-1.37-3.41-2.05-5.1-.71-1.67-1.21-3.43-1.81-5.13-.61-1.69-1.09-3.43-1.58-5.15l-.74-2.57-.63-2.59-.61-2.58-.5-2.6-.49-2.58-.38-2.59-.35-2.58-.23-2.59c-.19-1.71-.21-3.45-.28-5.16-.05-.85.01-1.72.02-2.58.03-.86,0-1.71.12-2.57.09-.86.17-1.71.28-2.55l.51-2.52Z"/>
          <path class="cls-43" d="m370.04,127.95s-.47-.28-1.36-.8c-.44-.26-.99-.59-1.63-.96-.64-.38-1.42-.74-2.25-1.19-.84-.45-1.76-.94-2.82-1.39-1.05-.45-2.14-1.03-3.39-1.48-2.44-.98-5.24-1.97-8.32-2.9-1.55-.42-3.14-.94-4.84-1.3-1.68-.4-3.41-.83-5.22-1.14-.9-.17-1.81-.34-2.73-.52-.93-.14-1.87-.27-2.82-.41-1.89-.31-3.84-.5-5.82-.71-1.97-.25-4-.29-6.03-.45-2.04-.1-4.11-.11-6.18-.19-2.08.03-4.18.02-6.28.1-2.1.13-4.21.18-6.32.37-4.21.32-8.43.8-12.53,1.43-2.07.34-4.14.65-6.12,1.07-1,.2-1.99.37-2.97.6-.98.23-1.95.47-2.92.7-1.94.43-3.79,1.06-5.65,1.55-1.8.63-3.62,1.14-5.3,1.85-3.43,1.28-6.53,2.85-9.28,4.47-.68.43-1.34.85-1.99,1.26-.62.45-1.22.9-1.81,1.33-.61.42-1.14.88-1.66,1.34-.51.46-1.05.88-1.5,1.35-.88.95-1.78,1.8-2.42,2.72-.34.45-.69.87-.98,1.29-.27.44-.52.86-.77,1.25-.53.78-.82,1.55-1.15,2.2-.15.33-.31.63-.42.91-.1.29-.19.55-.27.79-.32.95-.49,1.45-.49,1.45,0,0,.13-.51.36-1.48.06-.24.13-.51.2-.81.09-.29.22-.6.35-.95.27-.68.52-1.48,1-2.3.22-.42.46-.86.7-1.32.26-.45.6-.9.92-1.38.6-.98,1.46-1.91,2.31-2.94,1.84-1.93,4.08-4.02,6.88-5.8,2.76-1.79,5.9-3.54,9.38-4.95,1.71-.79,3.54-1.36,5.38-2.06.93-.29,1.88-.58,2.83-.88.95-.3,1.92-.59,2.9-.83.98-.25,1.97-.51,2.96-.77,1-.25,2.02-.44,3.04-.67,2.05-.48,4.09-.81,6.16-1.15,4.19-.67,8.44-1.18,12.72-1.53,2.14-.18,4.28-.22,6.42-.34,2.14-.06,4.27-.04,6.38-.06,2.11.08,4.21.12,6.28.27,2.07.2,4.12.28,6.12.57,2,.26,3.98.47,5.89.85.96.17,1.91.34,2.85.5.93.21,1.85.41,2.76.61,3.64.78,7.03,1.81,10.11,2.86,3.09,1.06,5.86,2.23,8.26,3.37,1.22.53,2.29,1.17,3.32,1.69,1.03.52,1.94,1.07,2.76,1.57,1.67.95,2.87,1.84,3.71,2.44.84.59,1.28.91,1.28.91Z"/>
          <g>
            <path class="cls-14" d="m250.25,171.94s.36.07,1.05.19c.68.11,1.69.28,2.97.5,2.56.43,6.24.94,10.68,1.47,2.22.29,4.64.51,7.2.78,2.56.26,5.28.44,8.09.67,2.82.15,5.73.39,8.7.46,1.49.06,2.99.11,4.49.17,1.51.05,3.02.03,4.54.04,1.52.01,3.03.05,4.55.04,1.51-.03,3.02-.07,4.52-.1,1.5-.06,2.98-.02,4.45-.12,1.47-.08,2.92-.15,4.34-.23,2.86-.11,5.61-.37,8.22-.6,1.31-.11,2.58-.22,3.81-.33,1.23-.15,2.41-.3,3.55-.44,2.28-.28,4.37-.54,6.22-.77,1.84-.31,3.44-.58,4.76-.8,2.64-.43,4.17-.65,4.17-.65,0,0-1.47.41-4.07,1.08-1.3.33-2.88.73-4.7,1.19-1.83.41-3.91.79-6.18,1.22-1.14.21-2.32.43-3.55.65-1.24.16-2.51.33-3.83.5-1.32.17-2.67.35-4.05.53-1.38.21-2.8.25-4.24.38-2.88.22-5.86.51-8.89.54-1.51.05-3.04.09-4.57.14-1.53.02-3.07,0-4.6,0-1.53-.03-3.07-.02-4.59-.09-1.52-.07-3.04-.14-4.54-.21-.75-.04-1.5-.07-2.24-.11-.74-.06-1.48-.13-2.21-.19-1.46-.13-2.91-.25-4.33-.37-2.83-.29-5.55-.62-8.12-.98-2.56-.37-4.97-.74-7.18-1.17-2.21-.37-4.21-.83-5.98-1.21-1.76-.4-3.29-.77-4.55-1.09-1.25-.31-2.22-.6-2.88-.8-.66-.2-1.01-.31-1.01-.31Z"/>
            <path class="cls-14" d="m278.99,221.19s.73.29,2.02.79c1.28.5,3.12,1.2,5.34,2.01,1.11.4,2.32.83,3.59,1.28,1.27.47,2.65.87,4.04,1.37,1.41.44,2.87.9,4.36,1.36,1.5.42,3.01.92,4.55,1.29,1.53.42,3.06.85,4.59,1.17.76.17,1.52.35,2.27.54.75.15,1.5.3,2.23.45.73.15,1.46.28,2.16.44.71.12,1.41.24,2.09.35,1.36.21,2.64.48,3.84.6,1.2.14,2.3.3,3.27.44.98.09,1.84.16,2.54.23,1.42.14,2.23.24,2.23.24,0,0-.81.11-2.23.26-.71.07-1.58.17-2.57.24-.99.02-2.12.04-3.35.03-1.23.04-2.56-.07-3.96-.18-.7-.05-1.42-.11-2.16-.17-.73-.09-1.48-.21-2.23-.31-1.52-.2-3.08-.45-4.65-.81-1.57-.31-3.15-.71-4.72-1.12-1.57-.4-3.1-.94-4.63-1.4-1.51-.49-2.97-1.07-4.38-1.6-1.4-.57-2.74-1.12-3.99-1.71-1.26-.56-2.42-1.14-3.48-1.7-4.25-2.18-6.8-4.1-6.8-4.1Z"/>
            <path class="cls-14" d="m285.94,229.96s2.26.66,5.57,1.76c1.66.54,3.59,1.18,5.67,1.86,1.04.34,2.11.69,3.2,1.04,1.09.37,2.21.69,3.32,1.05,1.12.34,2.23.68,3.33,1.02,1.11.28,2.19.66,3.25.93,1.06.28,2.09.56,3.06.81.98.22,1.91.47,2.77.68.86.17,1.66.35,2.37.51.71.17,1.33.24,1.84.35,1.03.19,1.62.33,1.62.33,0,0-.59.08-1.64.18-.52.03-1.17.14-1.9.11-.73,0-1.56,0-2.47-.03-1.8-.11-3.9-.34-6.12-.76-1.11-.22-2.24-.46-3.39-.74-1.13-.32-2.29-.64-3.44-.96-2.26-.75-4.51-1.54-6.55-2.43-2.05-.86-3.91-1.78-5.47-2.61-3.12-1.66-5.03-3.08-5.03-3.08Z"/>
            <path class="cls-14" d="m307.55,227.47s3.95-.82,9.87-1.84c2.96-.53,6.41-1.11,10.1-1.72,3.69-.61,7.63-1.26,11.57-1.91,3.94-.62,7.86-1.31,11.55-1.92,1.84-.32,3.62-.63,5.3-.92,1.68-.31,3.27-.6,4.74-.86,1.47-.28,2.81-.54,4-.77,1.2-.22,2.23-.44,3.08-.62,1.71-.34,2.69-.54,2.69-.54,0,0-.92.37-2.54,1.01-.81.31-1.8.71-2.96,1.06-1.16.37-2.46.83-3.9,1.24-1.44.41-3.01.86-4.68,1.29-1.67.41-3.43.86-5.27,1.26-1.84.38-3.74.83-5.68,1.17-1.95.35-3.92.73-5.9,1.05-3.97.63-7.94,1.21-11.69,1.63-1.87.24-3.68.4-5.4.57-1.72.17-3.34.29-4.85.41-6,.45-10.02.44-10.02.44Z"/>
            <path class="cls-14" d="m373.55,206.57s-.03.95-.07,2.62c-.06,1.67-.15,4.06-.26,6.95-.09,2.9-.26,6.3-.22,9.93.01.91.03,1.83.12,2.73l.03.34s.03.21.04.31l.11.72c.08.48.19.88.28,1.33.45,1.84,1.11,3.74,1.79,5.65.67,1.93,1.36,3.87,2.01,5.83.66,1.96,1.19,3.96,1.61,5.94.41,1.97.66,4,.52,5.86-.13,1.99-.66,3.67-1.28,5.13-.62,1.47-1.38,2.69-2.12,3.7-.73,1.02-1.45,1.83-2.06,2.47-.61.64-1.14,1.09-1.5,1.4-.36.3-.56.45-.56.45,0,0,.68-.75,1.67-2.22.98-1.45,2.32-3.61,3.22-6.45.44-1.41.74-3.01.76-4.61.02-1.72-.35-3.49-.78-5.35-.45-1.84-1.09-3.72-1.72-5.63-.65-1.91-1.37-3.83-2.06-5.78-.66-1.95-1.31-3.92-1.78-5.96-.51-2.12-.49-4.13-.43-6.02.05-1.88.23-3.65.4-5.33.16-1.67.38-3.23.58-4.66.81-5.69,1.7-9.36,1.7-9.36Z"/>
            <path class="cls-14" d="m275.89,212.83s1.94.77,4.71,2.11c1.4.66,3.01,1.47,4.72,2.36,1.73.87,3.54,1.87,5.37,2.82,3.65,1.97,7.32,3.95,10.09,5.44.69.38,1.34.69,1.91.99.57.3,1.07.56,1.49.76.84.41,1.32.67,1.32.67,0,0-.53-.06-1.46-.2-.47-.07-1.03-.16-1.66-.33-.63-.16-1.36-.31-2.12-.57-.76-.24-1.6-.48-2.45-.82-.85-.33-1.77-.64-2.67-1.06-.9-.41-1.86-.79-2.78-1.27-.93-.46-1.87-.93-2.8-1.43-.92-.51-1.83-1.03-2.72-1.54-.9-.5-1.74-1.07-2.57-1.58-1.65-1.05-3.14-2.09-4.38-3.03-2.49-1.85-4-3.31-4-3.31Z"/>
            <path class="cls-14" d="m295.32,141.72c-.34,3.52-.6,7.08-.77,10.65-.1,1.8-.14,3.61-.2,5.42-.05,1.82-.09,3.64-.09,5.48-.02,1.84.02,3.68.03,5.53.07,1.86.08,3.72.2,5.59l.15,2.81.21,2.82c.12,1.89.36,3.78.56,5.67.24,1.89.52,3.81.8,5.69.35,1.91.64,3.87,1.07,5.75.38,1.91.84,3.81,1.32,5.72.5,1.91.99,3.83,1.58,5.73.56,1.92,1.2,3.82,1.85,5.72.68,1.9,1.4,3.79,2.15,5.68.77,1.88,1.58,3.77,2.46,5.61.87,1.85,1.83,3.71,2.85,5.42l.22.37-.06.38c-.53,3.3-1.02,6.64-1.47,10.01-.44,3.39-.9,6.8-1.26,10.25l-.27,2.6c-.09.87-.19,1.74-.26,2.61-.17,1.75-.29,3.51-.39,5.28-.06.89-.06,1.77-.1,2.66-.04.89-.02,1.78,0,2.68-.01.9.05,1.79.13,2.68.02.91.27,1.77.43,2.66-.22-.87-.55-1.72-.64-2.63-.14-.89-.29-1.79-.33-2.69-.07-.9-.14-1.8-.15-2.7-.02-.9-.07-1.79-.05-2.69-.02-3.56.12-7.09.34-10.59.45-6.93,1.17-13.73,2.04-20.45l.16.75c-1.16-1.85-2.13-3.69-3.07-5.58-.94-1.87-1.79-3.78-2.62-5.69-.81-1.91-1.53-3.84-2.24-5.77-.67-1.94-1.33-3.87-1.91-5.82-.59-1.94-1.13-3.89-1.62-5.84-.47-1.95-.92-3.89-1.29-5.86-.42-1.96-.7-3.88-1.03-5.81-.29-1.97-.52-3.89-.72-5.83-.15-1.93-.36-3.85-.44-5.77l-.15-2.86-.06-2.85c-.06-1.89,0-3.77,0-5.65.05-1.87.08-3.73.2-5.58.09-1.84.21-3.68.36-5.51.15-1.82.33-3.63.54-5.43.41-3.58.88-7.13,1.56-10.62Z"/>
          </g>
          <g>
            <polygon class="cls-55" points="392.2 170.72 392.2 170.72 392.2 170.72 392.2 170.72"/>
            <path class="cls-33" d="m370.22,127.34c12.82,4.34,20.86,22.3,21.98,43.38h0s0,0,0,0c.2,3.67.19,7.43-.04,11.24-1.67,27.11-31.53,23.42-40.91-1.72-8.88-23.81.15-59.27,18.97-52.9Z"/>
            <path class="cls-34" d="m370.09,133.29c12.43,4.25,19.38,24.04,17.99,45.11-1.46,22.04-25.83,19.08-33.57-1.39-7.4-19.58-.05-49.06,15.58-43.72Z"/>
          </g>
        </g>
        <g>
          <path class="cls-75" d="m327.09,121.34c.81-5.33.81-10.75-4.82-13.52s-12.59-5.61-25.23-3.89c-12.69,1.73-17.26,6.66-17.6,9.88s-.41,8.92.7,11.88c1.12,2.97,7.59,8.32,21.38,7.32,13.76-1,24.66-5.64,25.58-11.67Z"/>
          <path class="cls-14" d="m295.18,114.05s-.23.19-.56.58c-.33.39-.75.97-1.15,1.72-.4.75-.78,1.67-1.06,2.68-.14.51-.26,1.03-.36,1.57-.08.54-.16,1.1-.19,1.65-.01.55-.07,1.11-.03,1.66.02.55.06,1.08.12,1.6.13,1.03.33,1.99.59,2.79.21.81.53,1.45.72,1.9.21.45.35.7.35.7,0,0,.04-.29.09-.77.05-.49.06-1.17.11-1.99.02-.41.04-.84.04-1.3.03-.46.06-.94.06-1.43,0-.49.07-1,.07-1.51.01-.51.07-1.03.09-1.55.02-.52.09-1.03.11-1.54.07-.5.07-1.01.14-1.49.06-.48.12-.95.17-1.39.06-.44.12-.86.18-1.25.07-.39.13-.75.18-1.06.06-.32.12-.6.16-.83.1-.46.16-.73.16-.73Z"/>
        </g>
      </g>
    </g>
  </g>
  <g id="LEFT_ARM" data-name="LEFT ARM">
    <g>
      <g>
        <path class="cls-9" d="m325.62,267.85c3.23,6.47,15.46,12.63,21.15,11.03,5.69-1.6,30.53-15.99,33.38-17.94,2.85-1.95,4.93-11.06,6.32-24.47.59-5.62,1.21-23.7.57-43.09-.26-7.9-.72-16.02-1.48-23.59-1.82-18.19-9-35.4-15.37-37.28-16.26-4.79-32.35,15.37-32.48,37.42-.03,3,.14,6.04.49,9.06.58,4.98,1.21,10.03,1.85,14.92,2.63,19.85,5.5,37.14,5.5,37.14,0,0-20.13,20.01-21.87,22.4s-1.28,7.93,1.95,14.4Z"/>
        <g>
          <path class="cls-21" d="m375.14,243.76s-.95-1.46-2.9-3.2c-.47-.45-1.03-.88-1.61-1.35-.61-.43-1.22-.93-1.92-1.35-.69-.44-1.4-.9-2.16-1.28-.75-.42-1.54-.77-2.33-1.14-.79-.37-1.62-.62-2.42-.93-.8-.3-1.63-.48-2.41-.71-.78-.23-1.57-.33-2.3-.47-.73-.16-1.43-.2-2.08-.27-.65-.05-1.23-.13-1.76-.12-.53,0-.99.01-1.36.01-.75.02-1.18.05-1.18.05,0,0,.42.12,1.15.29.36.08.8.18,1.31.3.51.1,1.06.29,1.68.44.61.17,1.28.32,1.96.54.69.23,1.42.42,2.16.68.74.27,1.5.54,2.27.82.76.32,1.55.58,2.3.95.76.33,1.53.65,2.26,1.04.74.36,1.46.72,2.15,1.1.7.36,1.34.76,1.97,1.11.6.39,1.21.72,1.73,1.07,2.13,1.36,3.5,2.41,3.5,2.41Z"/>
          <path class="cls-39" d="m376.26,255.43s-.53-.14-1.5-.34c-.96-.19-2.33-.45-3.98-.71-1.65-.27-3.57-.55-5.64-.8-2.07-.27-4.28-.49-6.49-.71-1.11-.09-2.21-.19-3.3-.28-1.09-.1-2.16-.15-3.2-.22-2.08-.13-4.02-.22-5.69-.26-3.34-.1-5.57-.02-5.57-.02,0,0,2.19.49,5.48,1,1.65.26,3.57.54,5.64.79,2.07.27,4.28.48,6.49.71,2.21.19,4.43.38,6.5.51,2.08.13,4.02.23,5.69.28,1.67.06,3.06.07,4.03.07.98,0,1.54,0,1.54,0Z"/>
          <path class="cls-38" d="m366.64,265.24s-1.28-.74-3.27-1.64c-.99-.46-2.16-.96-3.43-1.46-1.26-.51-2.63-.99-4-1.48-1.38-.45-2.75-.92-4.07-1.29-1.31-.39-2.54-.71-3.6-.96-2.13-.51-3.59-.71-3.59-.71,0,0,1.28.74,3.27,1.65.99.46,2.16.96,3.43,1.46,1.26.51,2.63.99,4,1.48,1.38.45,2.76.91,4.07,1.29,1.31.38,2.54.71,3.6.96,2.13.51,3.59.71,3.59.71Z"/>
        </g>
        <path class="cls-64" d="m337.7,169.93c-.03,3,.14,6.04.49,9.06.58,4.98,1.21,10.03,1.85,14.92,8.9-2.94,27.07-7.05,46.99-.54-.26-7.9-.72-16.02-1.48-23.59-9.25-4.58-26.58-9.76-47.85.14Z"/>
      </g>
      <path class="cls-7" d="m345.81,275.01l-13.62,7.25s-9.24-4.62-12.94-9.71c-3.7-5.09-2.56-9.57-2.56-9.57l10.67-9.06s21.76,1.57,18.45,21.09Z"/>
      <g>
        <path class="cls-22" d="m334.61,274.47s-7.01,12.12-9.28,14.15c-2.28,2.03-16.04,10.41-16.04,10.41l-5.44-2.7s-5.26-.27-5.71-.52-1.54-1.54-1.54-1.54c0,0-3.27-.79-3.88-1.35s-2.35-2.8-2.35-2.8l5.18-9.85s-6.57,7.84-7.08,8.07-4.98-3.32-5.06-4.2,11.09-19.32,11.44-19.85,3.15-2.11,5.52-1.81,21.03,2.06,21.03,2.06c0,0,10.03-1.63,13.2,9.94Z"/>
        <g>
          <path class="cls-73" d="m319.59,281.35c0-.89-.08-1.78-.22-2.67-.17-.89-.33-1.78-.82-2.68l-.22-.34-.06-.09-.1-.11-.11-.12c-.14-.16-.52-.42-.73-.52-.49-.26-.99-.38-1.47-.47-.49-.09-.96-.13-1.44-.14-.48-.02-.93,0-1.44.05l1.13.81c-.07-.46-.16-.87-.26-1.3-.11-.43-.23-.86-.39-1.29-.16-.44-.38-.87-.71-1.34-.17-.23-.39-.47-.71-.69l-.03-.02-.11-.06-.03-.02-.07-.03-.14-.07c-.16-.06-.33-.12-.49-.18-.52-.14-.97-.2-1.42-.25-.44-.04-.88-.06-1.31-.06-.86,0-1.69.04-2.56.11l1.18.93c-.09-.5-.19-.93-.33-1.39-.13-.45-.29-.9-.47-1.36-.18-.45-.4-.9-.68-1.36-.14-.23-.33-.45-.54-.67-.24-.22-.48-.42-.91-.59-.12-.03-.19-.06-.35-.09-.15-.03-.32-.07-.46-.08-.26-.03-.52-.04-.76-.04-.49,0-.96.06-1.42.12-.92.14-1.8.34-2.68.61l.47.22c-.62-.88-1.28-1.73-1.96-2.58.37,1.02.76,2.03,1.19,3.02l.1.24.37-.02c.86-.05,1.75-.09,2.6-.08.43,0,.85.05,1.24.09.2.02.39.06.56.1l.19.06.28.12.15.19c.08.12.16.25.24.4.16.31.31.67.43,1.05.12.38.22.78.31,1.19.08.4.17.83.23,1.21l.16.98,1.02-.06c.77-.04,1.58-.06,2.36-.04l1.15.05c.36.03.74.08,1.01.14h.09s.14.08.14.08l.07.03.03.02h0s.09.05-.09-.05h0s0,0,0,0h0s.17.17.17.17c.16.19.31.5.46.82.15.32.28.67.4,1.03.12.35.23.74.31,1.09l.23.97.9-.17c.36-.07.79-.11,1.18-.16.4-.04.8-.05,1.19-.03.38.02.75.08,1.06.18.2.08.2.04.39.16l.13.1h.01s.04.05.04.05l.17.19c.46.58.84,1.38,1.17,2.17.34.8.65,1.62.94,2.46Z"/>
          <path class="cls-56" d="m313.13,283.72s-.78.53-1.7,1.48c-.95.93-2.02,2.3-2.94,3.76-.92,1.46-1.68,3.02-2.11,4.28-.46,1.24-.59,2.18-.59,2.18,0,0,.79-.53,1.7-1.48.95-.93,2.02-2.3,2.94-3.76.91-1.46,1.68-3.02,2.11-4.28.46-1.24.59-2.18.59-2.18Z"/>
          <path class="cls-26" d="m304.98,278.08s-.86.75-1.89,2.03c-.52.63-1.09,1.39-1.66,2.23-.57.84-1.14,1.75-1.67,2.69-.53.94-1.01,1.9-1.43,2.83-.42.92-.78,1.8-1.04,2.58-.55,1.54-.74,2.67-.74,2.67,0,0,.86-.75,1.89-2.03.52-.63,1.09-1.39,1.66-2.23.57-.84,1.14-1.75,1.67-2.69.53-.94,1.01-1.9,1.43-2.83.42-.92.78-1.8,1.04-2.58.55-1.54.75-2.67.75-2.67Z"/>
        </g>
      </g>
    </g>
  </g>
  <g id="HEAD">
    <g>
      <path class="cls-8" d="m290.13,114.77c9.05.43,16.47-1.24,21.47-2.93.1-.83-1.25-18.6-1.25-18.6l-21.28,5.81,1.06,15.73Z"/>
      <g>
        <path class="cls-69" d="m283.52,53.76c-20.19,3.09-17.8,21.2-13.98,32.66,3.82,11.46,7.32,27.67,11.12,31.35s8.09,4.55,11.31,4.2c3.21-.35,13.56-7.54,15.91-14.59,2.36-7.05,3.99-27.33,2.92-36.51-1.07-9.18-9.92-19.77-27.27-17.11Z"/>
        <g>
          <path class="cls-50" d="m325.03,64.36c-1.57,10.77-11.22,26.86-14.15,28.92,0,0-3.65,2.5-4.45,1.93-.78-.58,1.81-12.98,1.81-12.98,0,0-6.01,3.82-8.88,2.65-2.88-1.16-.09-13.67-.09-13.67,0,0-27.84,27.07-33.97,13.65,0,0-13.23,2.1-15.2-4.25-.07-.19-.1-.37-.14-.57-1.2-6.04,9.49-10.16,9.49-10.16,0,0-11.75-2.13-12.11-9.68-.35-7.34,30.8-24.13,57.44-7.83-1.74-2.34-4.7-6.55-7.56-11.73-4.29-7.79,8.12.28,9.04,12.65.08.06.16.1.24.17,1.22-3.57,4.12-10.61,8.28-11.2,4.12-.58-2.75,6.96-6.58,10.91,3.27-.96,11.47-2.55,15.83,3.67,1.23,1.76,1.44,4.41.99,7.51Z"/>
          <path class="cls-77" d="m325.03,64.36c-1.57,10.77-11.22,26.86-14.15,28.92,0,0-3.65,2.5-4.45,1.93-.78-.58,1.81-12.98,1.81-12.98,0,0-6.01,3.82-8.88,2.65-2.88-1.16-.09-13.67-.09-13.67,0,0-27.84,27.07-33.97,13.65,0,0-13.23,2.1-15.2-4.25-.07-.19-.1-.37-.14-.57,7.47,3.23,20.95-3.29,20.95-3.29,0,0-.41,5.95,6.57,4.77,6.88-1.15,31.15-19.92,31.88-20.47-.1.47-2.12,9.51,3.33,11.13,2.73.82,7.82-3.35,12.32-7.83Z"/>
        </g>
        <path class="cls-20" d="m308.86,91.58s5.9-8.26,12.49-8.63.8,25.99-13.15,16.13l.67-7.5Z"/>
      </g>
    </g>
  </g>
  <g id="FACE">
    <g>
      <path class="cls-45" d="m284.98,111.96s5.52.21,9.36-1.28c0,0-.17,3.58-3.89,4.33s-5.48-3.05-5.48-3.05Z"/>
      <path class="cls-70" d="m284.73,98.61c.01.66-.06,1.3-.16,1.93-.1.64-.24,1.26-.42,1.88-.35,1.24-.84,2.45-1.61,3.58l.1-.45s.01.1.03.16c.02.07.04.13.07.2.06.13.13.26.22.38.17.26.4.47.67.67.27.21.59.35.93.5.34.13.71.25,1.09.36-.76.2-1.6.21-2.42-.09-.4-.15-.79-.4-1.12-.72-.16-.16-.3-.35-.42-.56-.06-.1-.12-.21-.17-.32-.05-.12-.09-.21-.13-.39-.03-.14,0-.28.06-.39l.04-.06c.59-.99,1.05-2.15,1.57-3.27.52-1.13,1.01-2.29,1.66-3.42Z"/>
      <path class="cls-18" d="m289.61,93.58s-.19-1.66.8-2.1.71.75.71.75c0,0,3.43-1.02,4.81,1.47,0,0-2.67-.79-6.32-.11Z"/>
      <path class="cls-80" d="m280.93,93.03s.1-1.65-.87-2.08-.64.76-.64.76c0,0-3.31-.94-4.49,1.57,0,0,2.49-.84,6-.25Z"/>
      <ellipse class="cls-85" cx="291.94" cy="98.04" rx="1.83" ry="2.24" transform="translate(-4.93 16.15) rotate(-3.14)"/>
      <ellipse class="cls-12" cx="278.61" cy="98.18" rx="1.83" ry="2.24" transform="translate(-4.96 15.41) rotate(-3.14)"/>
    </g>
  </g>
  <g id="LAPTOP">
    <g>
      <g>
        <rect class="cls-49" x="283.14" y="289.96" width="82.2" height="9.55" rx="4.78" ry="4.78" transform="translate(-19.34 22.79) rotate(-3.91)"/>
        <rect class="cls-78" x="298.68" y="293.77" width="13.36" height="4.5" rx=".72" ry=".72" transform="translate(-19.47 21.5) rotate(-3.91)"/>
        <rect class="cls-84" x="315.93" y="292.59" width="13.36" height="4.5" rx=".72" ry=".72" transform="translate(-19.35 22.68) rotate(-3.91)"/>
      </g>
      <g>
        <path class="cls-83" d="m285.81,302.15l-105.72,7.22c-3.89.27-7.94-2.62-9.06-6.44l-22.39-76.38c-1.13-3.82,1.11-7.13,4.99-7.39l.75-.05,104.97-7.18c3.88-.26,7.94,2.62,9.06,6.44l18.39,62.72,4,13.66c1.12,3.81-1.11,7.13-4.99,7.4Z"/>
        <path class="cls-17" d="m285.81,302.15l-105.72,7.22c-3.89.27-7.94-2.62-9.06-6.44l-22.39-76.38c-1.13-3.82,1.11-7.13,4.99-7.39l.75-.05c9.77,16.92,47.96,71.12,132.42,61.98l4,13.66c1.12,3.81-1.11,7.13-4.99,7.4Z"/>
        <path class="cls-54" d="m268.41,218.37l22.4,76.38c1.12,3.81-1.11,7.13-4.99,7.4l-6.49.44c3.88-.27,6.11-3.59,4.99-7.4l-22.4-76.38c-1.12-3.82-5.17-6.7-9.05-6.44l6.49-.44c3.88-.27,7.93,2.62,9.05,6.44Z"/>
      </g>
    </g>
  </g>
</svg>